<?xml version="1.0" encoding="utf-8"?>
<!-- Generator: Adobe Illustrator 27.5.0, SVG Export Plug-In . SVG Version: 6.00 Build 0)  -->
<svg version="1.1" id="Layer_1" xmlns="http://www.w3.org/2000/svg" xmlns:xlink="http://www.w3.org/1999/xlink" x="0px" y="0px"
	 viewBox="0 0 4000 4000" style="enable-background:new 0 0 4000 4000;" xml:space="preserve">
<g>
	<g>
		<rect style="fill:#E5BEFF;" width="128px" height="128px"/>
	</g>
	<g>
		<g>
			<g>
				<path style="fill:#FFFFFF;" d="M1410.482,1330.806l228.978-190.925l264.603-220.572
					c-148.815-151.647-441.367-316.285-530.511-261.213c-16.88,10.459-29.957,34.151-39.036,67.699
					C1300.411,851.626,1322.443,1115.339,1410.482,1330.806z"/>
			</g>
			<g>
				<path style="fill:#E7E7E7;" d="M1410.482,1330.806l228.978-190.925c-61.598-150.424-215.487-494.217-304.944-414.086
					C1300.411,851.626,1322.443,1115.339,1410.482,1330.806z"/>
			</g>
			<g style="opacity:0.5;">
				<path style="fill:#FFFFFF;" d="M1330.885,740.667c7.96-19.026,17.918-32.739,29.656-40.009
					c85.834-53.079,359.954,97.446,513.114,244.015l30.408-25.364c-148.815-151.647-441.367-316.285-530.511-261.213
					C1354.291,669.997,1339.966,699.287,1330.885,740.667z"/>
			</g>
			<g>
				<path style="fill:#262F6A;" d="M1410.501,1346.382c-6.148,0-11.973-3.655-14.443-9.692
					c-108.379-265.167-124.751-633.702-30.732-691.813c62.193-38.433,188.516,16.383,258.286,52.478
					c105.85,54.77,217.573,135.643,291.577,211.062c6.025,6.142,5.928,16.003-0.225,22.023c-6.148,6.015-16.021,5.92-22.051-0.222
					c-71.846-73.221-180.532-151.851-283.647-205.205c-107.134-55.434-192.183-75.497-227.529-53.651
					c-67.246,41.564-71.26,373.527,43.198,653.556c3.252,7.964-0.571,17.054-8.545,20.304
					C1414.461,1346.01,1412.464,1346.382,1410.501,1346.382z"/>
			</g>
			<g>
				<path style="fill:#F17E80;" d="M1426,1109.52c47.353-65.372,87.086-110.016,121.83-143.424
					c30.477-29.22,57.09-49.751,81.679-67.858c-6.521-30.129-196.172-195.858-225.588-142.962
					c-8.797,15.816-14.849,39.818-18.241,68.345C1375.053,911.982,1389.655,1043.693,1426,1109.52z"/>
			</g>
			<g>
				<path style="fill:#FF5C64;" d="M1385.681,823.621c12.262-15.648,31.01-34.222,48.224-30.079
					c29.309,7.068,91.588,104.442,113.925,172.554c30.477-29.22,57.09-49.751,81.679-67.858
					c-6.521-30.129-196.172-195.858-225.588-142.962C1395.125,771.091,1389.073,795.094,1385.681,823.621z"/>
			</g>
			<g>
				<path style="fill:#262F6A;" d="M1424.241,1138.52l-11.88-21.487c-49.805-90.102-62.183-297.194-22.08-369.326l0,0
					c4.609-8.281,16.357-21.577,42.949-17.625c64.946,9.641,203.916,129.662,211.504,164.892l2.119,9.839l-8.11,5.972
					c-53.691,39.536-113.369,88.151-200.098,207.851L1424.241,1138.52z M1423.787,760.499c-4.946,0-5.83,1.595-6.24,2.331l0,0
					c-29.429,52.91-26.357,222.395,11.426,316.387c75.596-100.804,130.972-148.328,180.571-185.557
					c-24.902-33.547-134.941-128.867-183.203-133.042C1425.389,760.535,1424.539,760.499,1423.787,760.499z M1403.914,755.268h0.049
					H1403.914z"/>
			</g>
		</g>
		<g>
			<g>
				<path style="fill:#F3F3F3;" d="M1274.196,889.339c0,0,52.781-431.458,542.832-517.502c0,0,181.817,12.927,188.998,22.235
					c7.181,9.308,240.905,63.423,240.336,110.202c-122.209-39.509-632.338-121.362-755.805,309.233
					C1425.724,1039.614,1274.196,889.339,1274.196,889.339z"/>
			</g>
			<g>
				<path style="fill:#F3F3F3;" d="M1274.196,889.339c0,0,52.781-431.458,542.832-517.502c0,0,181.817,12.927,188.998,22.235
					c7.181,9.308,240.905,63.423,240.336,110.202c-122.209-39.509-632.338-121.362-755.805,309.233
					C1425.724,1039.614,1274.196,889.339,1274.196,889.339z"/>
			</g>
			<g>
				<path style="fill:#F3F3F3;" d="M2246.359,504.279c-122.191-39.506-632.324-121.357-755.803,309.222
					c-39.17,136.565-109.947,135.835-159.856,113.857c-32.748-14.439-56.511-38.029-56.511-38.029s52.799-431.459,542.837-517.487
					c0,0,181.833,12.918,188.995,22.228c6.338,8.183,188.404,51.156,231.306,93.258
					C2243.151,493.005,2246.427,498.703,2246.359,504.279z"/>
			</g>
			<g>
				<path style="fill:#9F9F9F;" d="M2246.359,504.279c-122.191-39.506-632.324-121.357-755.803,309.222
					c-39.17,136.565-109.947,135.835-159.856,113.857c-8.207-6.522-12.981-11.248-12.981-11.248s70.846-474.327,558.775-485.896
					c0,0,165.888-18.703,173.05-9.393c4.98,6.47,118.555,34.4,187.783,66.508C2243.151,493.005,2246.427,498.703,2246.359,504.279z"
					/>
			</g>
			<g>
				<path style="fill:#262F6A;" d="M1377.933,951.946c-59.243,0-110.913-50.477-113.369-52.915
					c-2.998-2.972-4.453-7.161-3.94-11.348c0.552-4.528,14.429-112.262,89.634-232.083
					c69.399-110.575,206.309-251.9,464.404-297.216c1.104-0.193,2.231-0.249,3.34-0.171
					c164.604,11.704,190.283,19.956,196.865,25.383c5.313,2.538,25.132,8.676,44.331,14.618
					c130.601,40.43,201.289,69.332,200.84,106.225c-0.054,4.34-2.168,8.398-5.698,10.929c-3.53,2.533-8.052,3.238-12.192,1.899
					c-81.147-26.234-334.292-71.695-528.584,31.66c-104.072,55.363-174.682,145.646-209.863,268.339
					c-21.641,75.482-55.62,119.743-100.981,131.554C1394.383,950.988,1386.087,951.946,1377.933,951.946z M1288.831,884.184
					c15.215,13.201,62.529,49.85,107.07,38.18c35.303-9.239,62.729-47.129,81.509-112.618
					c37.3-130.086,112.427-225.951,223.296-284.93c170.181-90.536,382.861-71.88,496.548-47.446
					c-6.948-3.484-15.254-7.303-25.19-11.455c-38.438-16.061-86.133-30.826-120.962-41.608
					c-37.558-11.626-48.364-15.171-53.452-19.346c-14.78-5.152-101.621-13.779-179.907-19.38
					c-197.988,35.142-347.246,130.523-443.682,283.523C1312.24,767.192,1293.158,858.925,1288.831,884.184z M1274.198,889.339h0.049
					H1274.198z M1998.592,405.327L1998.592,405.327L1998.592,405.327z M1995.199,402.421c0.005,0,0.005,0.002,0.005,0.002
					S1995.203,402.421,1995.199,402.421z"/>
			</g>
			<g>
				<path style="fill:#262F6A;" d="M1299.124,939.018c-0.976,0-1.973-0.105-2.969-0.327c-7.373-1.631-12.026-8.917-10.396-16.281
					c0.874-3.945,22.139-97.898,85.815-205.32c59.004-99.551,166.992-229.101,346.343-280.955c7.261-2.08,14.839,2.077,16.938,9.324
					c2.1,7.244-2.075,14.818-9.331,16.917c-170.425,49.269-273.511,172.872-329.976,267.885
					c-61.665,103.757-82.876,197.122-83.086,198.053C1311.048,934.683,1305.399,939.018,1299.124,939.018z"/>
			</g>
			<g>
				<g>
					<path style="fill:#C5C5C5;" d="M1376.292,1085.355c-22.618,82.799,18.968,228.75-33.883,232.194
						c-46.106,3.004-121.624-29.078-134.625-37.715c-50.692-33.675-80.963-126.009-47.565-248.272s106.796-193.773,168.509-194.479
						c35.685-0.408,132.369,18.997,141.61,40.486C1490.272,923.921,1397.446,1007.918,1376.292,1085.355z"/>
				</g>
				<g>
					<path style="fill:#C5C5C5;" d="M1378.211,1078.929c-0.698,2.136-1.327,4.289-1.923,6.435
						c-22.624,82.78,18.976,228.726-33.894,232.174c-46.072,3.027-121.594-29.059-134.604-37.712
						c-43.136-28.658-71.48-99.782-58.395-195.692c2.273-16.804,5.834-34.342,10.825-52.58
						c33.405-122.246,106.805-193.755,168.498-194.462c35.706-0.409,132.389,18.994,141.608,40.473
						C1489.719,922.644,1402.498,1003.323,1378.211,1078.929z"/>
				</g>
				<g>
					<path style="fill:#909090;" d="M1378.211,1078.929c-0.698,2.136-1.327,4.289-1.923,6.435
						c-22.624,82.78,18.976,228.726-33.894,232.174c-46.072,3.027-121.594-29.059-134.604-37.712
						c-43.136-28.658-71.48-99.782-58.395-195.692c23.589,20.976,71.939,49.245,124.973-4.866
						C1308.546,1044.361,1345.226,1053.165,1378.211,1078.929z"/>
				</g>
				<g style="opacity:0.6;">
					<path style="fill:#FFFFFF;" d="M1472.499,899.68c-21.159-19.214-104.76-35.382-137.394-35.016
						c-61.693,0.707-135.094,72.216-168.491,194.492c-15.024,54.918-17.169,103.751-10.4,143.991
						c-13.443-44.577-14.616-103.445,4.005-171.594c33.405-122.246,106.805-193.755,168.498-194.462
						c35.706-0.409,132.389,18.994,141.608,40.473C1473.192,884.216,1473.713,891.612,1472.499,899.68z"/>
				</g>
				<g>
					<path style="fill:#262F6A;" d="M1336.073,1331.406c-51.074,0-123.106-31.723-135.864-40.199
						c-52.7-35.012-89.585-129.986-53.184-263.238c32.666-119.582,107.319-203.693,181.548-204.544
						c0.229-0.002,0.469-0.005,0.718-0.005c26.704,0,139.331,15.549,153.613,48.757c14.19,32.991-12.002,73.28-42.329,119.933
						c-20.889,32.138-42.49,65.367-51.089,96.837c-8.711,31.889-7.222,76.155-5.908,115.212
						c2.143,63.831,4.17,124.122-40.278,127.019C1340.946,1331.331,1338.533,1331.406,1336.073,1331.406z M1330.228,850.733
						c-0.454,0-0.899,0.002-1.343,0.007c-52.388,0.6-122.617,64.139-155.474,184.418c-32.637,119.467-1.133,204.685,41.943,233.305
						c12.402,8.234,84.77,38.199,126.167,35.456c18.003-1.173,16.26-53.061,14.722-98.841c-1.382-40.991-2.944-87.449,6.855-123.318
						l0,0c9.722-35.583,32.5-70.629,54.536-104.523c23.872-36.727,48.56-74.701,40.142-94.279
						C1449.813,870.783,1370.702,850.733,1330.228,850.733z"/>
				</g>
				<g>
					
						<ellipse transform="matrix(0.2702 -0.9628 0.9628 0.2702 -38.2128 2132.6277)" style="fill:#909090;" cx="1387.695" cy="1091.521" rx="232.654" ry="112.824"/>
				</g>
				<g>
					<path style="fill:#262F6A;" d="M1340.062,1331.252c-5.727,0-11.396-0.675-16.973-2.065
						c-20.137-5.011-37.461-19.041-50.093-40.569c-29.58-50.416-32.651-137.762-8.013-227.957
						c36.348-133.064,118.677-223.924,187.319-206.805c20.137,5.013,37.456,19.041,50.088,40.569
						c29.585,50.418,32.656,137.765,8.017,227.955C1477.01,1244.64,1404.842,1331.252,1340.062,1331.252z M1434.862,879.054
						c-50.864,0-114.287,81.87-143.491,188.795c-22.427,82.095-20.376,163.331,5.225,206.958
						c8.955,15.257,20.093,24.635,33.105,27.875c3.53,0.878,7.153,1.307,10.83,1.307c50.859,0.01,114.282-81.873,143.491-188.797
						l0,0c22.427-82.09,20.376-163.324-5.225-206.956c-8.955-15.257-20.093-24.635-33.106-27.875
						C1442.161,879.483,1438.538,879.054,1434.862,879.054z"/>
				</g>
			</g>
		</g>
		<g>
			<g>
				<g>
					<path style="fill:#FFFFFF;" d="M2181.923,3058.499c94.336,113.227,343.251,164.632,464.456,57.224
						c86.925-77.03,111.372-224.514,68.874-354.441c-48.719-148.944-109.921-308.374-43.532-421.183
						c36.828-62.578,110.317-83.947,162.123-55.037c23.135,12.91,50.51,45.468,13.535,138.494
						c-37.36,93.994-0.348,132.929,14.491,143.366c71.908,50.574,199.149,5.586,239.906-139.187
						c37.905-134.644-21.644-308.784-200.693-355.102c-240.659-62.256-397.91,125.66-413.104,284.704
						c-24.501,256.475,164.226,466.195,69.755,594.846c-63.719,86.773-244.921,39.521-310.222-67.158"/>
				</g>
			</g>
			<g>
				<path style="fill:#FFFFFF;" d="M2181.908,3058.506c94.344,113.228,343.269,164.635,464.483,57.209
					c86.901-77.023,111.377-224.518,68.844-354.423c-48.696-148.952-109.904-308.385-43.505-421.177
					c36.822-62.583,110.268-83.965,162.073-55.052l0.032,0.005c23.153,12.898,50.535,45.464,13.562,138.475
					c-37.378,94.012-0.371,132.953,14.491,143.366c71.881,50.571,199.133,5.584,239.878-139.168
					c37.906-134.636-21.63-308.78-200.697-355.093c-11.295-2.938-22.436-5.325-33.391-7.158
					c-221.724-37.512-365.222,140.286-379.686,291.862c-24.512,256.459,164.216,466.191,69.738,594.82
					c-63.703,86.786-244.914,39.544-310.233-67.138L2181.908,3058.506z"/>
			</g>
			<g>
				<path style="fill:#FFFFFF;" d="M2181.905,3058.493c94.362,113.243,343.282,164.665,464.481,57.228
					c86.909-77.033,111.395-224.532,68.852-354.421c-26.249-80.282-56.13-163.614-67.702-241.059l0.004-0.032
					c-0.032-0.233-0.101-0.438-0.101-0.666c-9.775-65.956-6.217-127.601,24.29-179.412c36.829-62.586,110.27-83.987,162.058-55.072
					l0.064,0.009c23.142,12.883,50.532,45.48,13.56,138.466c-37.38,94.036-0.385,132.962,14.461,143.38
					c49.027,34.456,123.78,24.541,179.297-31.16c25.904-25.977,47.624-61.953,60.591-108.014
					c37.917-134.641-21.642-308.767-200.68-355.087c-11.314-2.953-22.449-5.327-33.401-7.155
					c-221.731-37.515-365.223,140.276-379.69,291.85c-24.523,256.473,164.217,466.188,69.735,594.826
					c-63.687,86.801-244.902,39.556-310.228-67.143L2181.905,3058.493z"/>
			</g>
			<g>
				<path style="fill:#FFFFFF;" d="M2181.905,3058.493c94.362,113.243,343.282,164.665,464.481,57.228
					c51.211-45.393,80.74-115.223,87.626-191.546c0,0,0.004-0.032,0.009-0.064c4.835-53.161-1.321-109.49-18.783-162.811
					c-26.249-80.282-56.13-163.614-67.702-241.059l0.004-0.032c-0.032-0.233-0.101-0.438-0.101-0.666
					c-9.775-65.956-6.217-127.601,24.29-179.412c36.829-62.586,110.27-83.987,162.058-55.072l0.064,0.009
					c23.142,12.883,50.532,45.48,13.56,138.466c-37.38,94.036-0.385,132.962,14.461,143.38
					c49.027,34.456,123.78,24.541,179.297-31.16c25.904-25.977,47.624-61.953,60.591-108.014
					c37.917-134.641-21.642-308.767-200.68-355.087c-11.314-2.953-22.449-5.327-33.401-7.155
					c-221.731-37.515-365.223,140.276-379.69,291.85c-24.523,256.473,164.217,466.188,69.735,594.826
					c-30.214,41.169-86.863,52.188-145.035,40.976c-64.473-12.387-130.838-52.009-165.192-108.12L2181.905,3058.493z"/>
			</g>
			<g>
				<path style="fill:#EEEEEE;" d="M2181.905,3058.493c94.362,113.243,343.282,164.665,464.481,57.228
					c51.211-45.393,80.74-115.223,87.626-191.546c-2.357,9.148-55.411,206.45-235.066,174.928
					c-84.531-14.84-94.01-65.088-86.256-105.952c-64.473-12.387-130.838-52.009-165.192-108.12L2181.905,3058.493z"/>
			</g>
			<g>
				<path style="fill:#EEEEEE;" d="M2647.44,2519.543c-9.775-65.956-6.217-127.601,24.29-179.412
					c36.829-62.586,110.27-83.987,162.058-55.072l0.064,0.009c23.142,12.883,50.532,45.48,13.56,138.466
					c-37.38,94.036-0.385,132.962,14.461,143.38c49.027,34.456,123.78,24.541,179.297-31.16
					c-24.293,12.198-58.469,22.587-99.634,16.819c-87.142-12.209-71.281-99.001-49.741-157.052
					c18.598-50.06,37.219-160.893-58.502-184.889C2737.667,2186.649,2603.719,2285.395,2647.44,2519.543z"/>
			</g>
			<g>
				<path style="fill:#FF9243;" d="M2833.787,2285.059l0.064,0.009c23.142,12.883,50.532,45.48,13.56,138.466
					c-37.38,94.036-0.385,132.962,14.461,143.38c49.027,34.456,123.78,24.541,179.297-31.16
					c-24.293,12.198-58.469,22.587-99.634,16.819c-87.142-12.209-71.281-99.001-49.741-157.052
					c16.303-43.9,32.639-134.534-28.135-172.329c2.836,11.96,5.134,23.584-0.271,32.695
					C2857.321,2266.241,2844.501,2272.62,2833.787,2285.059z"/>
			</g>
			<g>
				<path style="fill:#FFAC40;" d="M2833.803,2285.063l0.032,0.005c23.153,12.898,50.535,45.464,13.562,138.475
					c-37.378,94.012-0.371,132.953,14.491,143.366c71.881,50.571,199.133,5.584,239.878-139.168
					c37.906-134.636-21.63-308.78-200.697-355.093c-11.295-2.938-22.436-5.325-33.391-7.158
					c4.719,26.978,22.682,40.438,24.88,53.904c4.607,28.483-26.932,49.224-32.215,70.634c-5.173,20.864,13.593,48.091,3.052,65.855
					C2857.322,2266.24,2844.49,2272.609,2833.803,2285.063z"/>
			</g>
			<g>
				<path style="fill:#FF9243;" d="M2833.787,2285.059l0.064,0.009c23.142,12.883,50.532,45.48,13.56,138.466
					c-37.38,94.036-0.385,132.962,14.461,143.38c49.027,34.456,123.78,24.541,179.297-31.16
					c-24.293,12.198-58.469,22.587-99.634,16.819c-87.142-12.209-71.281-99.001-49.741-157.052
					c16.303-43.9,32.639-134.534-28.135-172.329c2.836,11.96,5.134,23.584-0.271,32.695
					C2857.321,2266.241,2844.501,2272.62,2833.787,2285.059z"/>
			</g>
			<g style="opacity:0.5;">
				<path style="fill:#FFFFFF;" d="M2594.116,2146.05c64.032-50.632,149.682-79.149,251.996-61.85
					c10.952,1.827,22.087,4.202,33.401,7.155c20.597,5.329,39.623,12.359,57.081,20.83c-7.451,1.236-13.715,4.429-18.037,9.752
					c-14.248,17.48-1.954,51.154,27.422,75.17c29.407,24.02,64.761,29.299,78.978,11.814c4.671-5.729,6.504-13.224,5.759-21.569
					c58.64,74.268,73.32,174.458,49.477,259.089c-12.958,45.997-34.642,81.946-60.477,107.899
					c7.397-5.478,14.57-11.671,21.455-18.588c25.904-25.977,47.624-61.953,60.591-108.014
					c37.917-134.641-21.642-308.767-200.68-355.087c-11.314-2.953-22.449-5.327-33.401-7.155
					C2753.372,2046.16,2659.877,2084.033,2594.116,2146.05z"/>
			</g>
			<g>
				<g>
					<path style="fill:#262F6A;" d="M2467.093,3190.284c-10.449,0-21.089-0.405-31.899-1.222
						c-106.821-8.071-210.942-55.409-265.259-120.601l23.975-19.921c49.18,59.028,144.815,101.996,243.638,109.465
						c81.812,6.164,152.266-12.977,198.486-53.932c79.854-70.766,106.338-209.74,64.395-337.956
						c-3.618-11.06-7.305-22.179-11.001-33.335c-47.285-142.61-96.182-290.074-31.147-400.576
						c39.805-67.64,121.963-94.884,183.174-60.74c31.045,17.325,59.795,58.772,20.42,157.835
						c-35.059,88.203,1.323,119.506,8.975,124.888c26.865,18.897,62.959,22.394,99.004,9.595
						c54.668-19.412,97.28-70.537,116.914-140.264c20.058-71.256,10.351-151.478-25.967-214.595
						c-34.893-60.635-91.475-102.55-163.628-121.216c-119.834-30.999-206.089,5.245-257.349,41.113
						c-75.586,52.888-127.822,141.018-136.323,229.996c-11.221,117.466,23.77,225.66,54.634,321.12
						c35.904,111.028,66.914,206.914,12.173,281.457c-25.962,35.356-70.454,53.6-125.151,51.257
						c-83.276-3.497-170.02-52.639-210.947-119.504l26.611-16.244c35.249,57.587,113.325,101.592,185.645,104.63
						c43.945,1.831,79.077-11.843,98.696-38.558c45.308-61.703,17.944-146.328-16.699-253.465
						c-31.797-98.329-67.837-209.779-56.006-333.65c9.346-97.805,66.621-194.576,149.473-252.548
						c56.636-39.628,151.709-79.73,283.066-45.756c80.454,20.814,143.677,67.789,182.842,135.848
						c40.41,70.222,51.235,159.4,28.95,238.547c-22.402,79.588-72.153,138.338-136.489,161.18
						c-45.708,16.228-92.148,11.322-127.407-13.477c-15.459-10.875-62.598-54.683-20-161.846
						c24.917-62.698,22.681-102.784-6.65-119.15c-46.499-25.959-109.795-3.818-141.074,49.331
						c-57.871,98.332-11.235,238.981,33.867,375.002c3.711,11.192,7.412,22.352,11.045,33.454
						c45.679,139.647,15.518,292.176-73.345,370.928C2610.438,3168.395,2543.924,3190.284,2467.093,3190.284z"/>
				</g>
			</g>
		</g>
		<g>
			<path style="fill:#FFFFFF;" d="M1708.703,2146.629c-73.321,36.628-162.861,74.859-267.511,106.871
				c-107.864,32.995-206.244,51.572-289.398,62.097c38.1,99.126,76.2,198.251,114.3,297.377
				c51.732,2.133,114.464,0.655,184.825-9.716c80.531-11.869,148.59-32.076,201.849-51.978
				C1671.414,2416.397,1690.058,2281.513,1708.703,2146.629z"/>
		</g>
		<g>
			<path style="fill:#EEEEEE;" d="M1660.357,2169.833c-8.267,66.253-16.533,132.507-24.8,198.76
				c-52.99,20.602-120.777,41.706-201.144,54.636c-70.218,11.298-132.925,13.603-184.681,12.154
				c-16.845-42.152-33.689-84.304-50.534-126.456c-16.29,2.52-32.109,4.734-47.404,6.67c38.1,99.125,76.2,198.251,114.3,297.377
				c51.732,2.132,114.464,0.655,184.825-9.716c80.531-11.869,148.59-32.076,201.849-51.978
				c18.645-134.884,37.289-269.768,55.934-404.652C1693.313,2154.317,1677.166,2162.075,1660.357,2169.833z"/>
		</g>
		<g>
			<path style="fill:#262F6A;" d="M1306.688,2631.146c-13.784,0-27.559-0.283-41.309-0.849c-6.919-0.288-13.008-4.652-15.488-11.112
				l-114.302-297.377c-1.909-4.972-1.431-10.543,1.309-15.113c2.739-4.572,7.427-7.632,12.715-8.3
				c96.802-12.253,193.193-32.935,286.499-61.473c90.791-27.773,179.888-63.368,264.829-105.798
				c5.747-2.882,12.646-2.338,17.881,1.417c5.234,3.748,7.959,10.085,7.08,16.461l-55.938,404.65
				c-0.874,6.311-5.142,11.634-11.113,13.867c-66.318,24.781-135.425,42.576-205.396,52.89
				C1404.998,2627.552,1355.794,2631.146,1306.688,2631.146z M1278.187,2596.051c56.841,1.688,114.033-1.663,170.2-9.943
				c64.15-9.456,127.554-25.43,188.608-47.504l50.059-362.116c-77.725,37.012-158.574,68.445-240.776,93.592
				c-88.149,26.963-179.009,47.053-270.396,59.803L1278.187,2596.051z"/>
		</g>
		<g>
			<path style="fill:#EEEEEE;" d="M1785.26,2095.506c-13.424,39.134-62.218,165.591-122.607,137.727
				c-12.84-5.946-27.432-16.866-38.949-26.387c56.148-28.369,106.965-61.635,141.907-98.593
				C1772.069,2101.413,1778.645,2097.293,1785.26,2095.506z"/>
		</g>
		<g style="opacity:0.25;">
			<ellipse style="fill:#262F6A;" cx="1951.011" cy="3631.532" rx="798.588" ry="84.701"/>
		</g>
		<g>
			<path style="fill:#F8D2B6;" d="M2140.298,2146.729c-21.957,43.001-34.796,82.9-41.052,120.797
				c-61.169,14.62-130.229,21.603-209.348,18.132c-95.76-4.166-171.649-26.708-227.257-52.435
				c43.505-57.826,145.358-181.113,227.789-187.28C2004.385,2037.449,2085.753,2088.945,2140.298,2146.729z"/>
		</g>
		<g>
			<path style="fill:#FF9243;" d="M2203.552,2232.774c-84.557,36.876-185.96,58.479-313.654,52.884
				c-95.76-4.166-171.649-26.708-227.257-52.435c43.505-57.826,145.358-181.113,227.789-187.28
				c113.956-8.494,195.323,43.001,249.868,100.786C2168.061,2176.132,2188.914,2207.209,2203.552,2232.774z"/>
		</g>
		<g>
			<path style="fill:#FF9243;" d="M2264.844,2201.941c-36.963,21.154-77.279,39.449-122.011,53.579l-6.215-139.133
				C2175.135,2131.906,2219.376,2161.472,2264.844,2201.941z"/>
		</g>
		<g>
			<path style="fill:#FFAC40;" d="M2353.149,2831.753c-1.363,133.682,2.716,475.184,0,626.112
				c2.034,20.957,15.674,98.799-5.026,134.279c-15.272,26.177-34.755,42.418-96.819,42.418c-42.329,0-98.764,0-166.396,0
				c-94.303,0-102.736-55.945-104.888-81.849c-3.447-41.492,7.774-85.122,7.774-85.122l-33.478-326.917"/>
		</g>
		<g>
			<path style="fill:#FFAC40;" d="M2348.133,3592.164c-15.292,26.177-34.755,42.389-96.823,42.389h-166.416
				c-94.288,0-102.711-55.947-104.879-81.838c-3.434-41.491,7.769-85.105,7.769-85.105l-0.45-4.574l-33.038-322.369l398.865-308.934
				c-1.39,132.966,2.658,471.507,0.041,623.626c0,0.816-0.041,1.674-0.041,2.491
				C2355.166,3478.841,2368.823,3556.677,2348.133,3592.164z"/>
		</g>
		<g>
			<path style="fill:#FFAC40;" d="M2348.133,3592.164c-15.292,26.177-34.755,42.389-96.823,42.389h-166.416
				c-94.288,0-102.711-55.947-104.879-81.838c-3.434-41.491,7.769-85.105,7.769-85.105l-0.45-4.574l-33.038-322.369l398.865-308.934
				c-1.39,132.966,2.658,471.507,0.041,623.626c0,0.816-0.041,1.674-0.041,2.491
				C2355.166,3478.841,2368.823,3556.677,2348.133,3592.164z"/>
		</g>
		<g>
			<path style="fill:#FFFFFF;" d="M2348.133,3592.164c-15.292,26.177-34.755,42.389-96.823,42.389h-166.416
				c-94.288,0-102.711-55.947-104.879-81.838c-3.434-41.491,7.769-85.105,7.769-85.105l-0.45-4.574l-24.656-240.45l-8.382-81.919
				l398.865-308.934c-0.859,80.98,0.327,238.204,0.777,383.094c0.286,93.068,0.286,181.032-0.736,240.531
				c0,0.816-0.041,1.674-0.041,2.491C2355.166,3478.841,2368.823,3556.677,2348.133,3592.164z"/>
		</g>
		<g>
			<path style="fill:#EEEEEE;" d="M2353.939,3214.828c-1.472-0.449-2.985-0.939-4.539-1.47
				c-139.429-49.413-297.544-17.234-386.722,9.229l-8.382-81.919l398.865-308.934
				C2352.304,2912.714,2353.49,3069.937,2353.939,3214.828z"/>
		</g>
		<g>
			<g>
				<path style="fill:#FFAC40;" d="M1910.289,3005.974c-13.065,94.639,27.207,433.827,17.789,527.018
					c-8.434,83.449-63.089,102.5-136.904,102.5c-49.79,0-94.959,0-201.594,0c-89.351,0-90.385-76.867-84.05-105.504
					c9.324-42.15,51.031-68.362,76.245-75.578c-90.931-381.215-112.507-656.808-112.507-656.808"/>
			</g>
			<g>
				<path style="fill:#FFAC40;" d="M1928.096,3532.992c-8.439,83.436-63.1,102.497-136.924,102.497h-201.611
					c-89.347,0-90.353-76.864-84.044-105.513c9.33-42.104,51.022-68.318,76.224-75.549c0.039,0,0.039,0,0.039,0
					c-90.934-381.222-112.496-656.815-112.496-656.815l441.005,208.357c-10.84,78.603,15.098,325.779,18.775,460.715
					C1929.877,3494.29,1929.684,3517.178,1928.096,3532.992z"/>
			</g>
			<g>
				<path style="fill:#FFFFFF;" d="M1928.096,3532.992c-8.439,83.436-63.1,102.497-136.924,102.497h-201.611
					c-73.591,0-87.257-52.157-86.25-86.567c0.232-7.347,1.084-13.919,2.206-18.946c9.33-42.104,51.022-68.318,76.224-75.549
					c0.039,0,0.039,0,0.039,0c-41.847-175.3-68.946-328.252-86.095-442.387c-20.092-134.008-26.401-214.427-26.401-214.427
					l441.005,208.357c-10.84,78.603,15.098,325.779,18.775,460.715C1929.877,3494.29,1929.684,3517.178,1928.096,3532.992z"/>
			</g>
			<g>
				<path style="fill:#EEEEEE;" d="M1928.096,3532.992c-8.439,83.436-63.1,102.497-136.924,102.497h-201.611
					c-73.591,0-87.257-52.157-86.25-86.567c39.318,20.544,375.247,56.167,376.627-74.467c3.252-45.197-2.555-164.745-26.75-203.408
					c-17.846-28.495-51.293-45.43-173.739-98.592c-92.328-40.094-149.35-104.353-183.765-160.415
					c-20.092-134.008-26.401-214.427-26.401-214.427l441.005,208.357c-10.84,78.603,15.098,325.779,18.775,460.715
					C1929.877,3494.29,1929.684,3517.178,1928.096,3532.992z"/>
			</g>
			<g>
				<path style="fill:#262F6A;" d="M1791.175,3651.036h-201.597c-36.011,0-63.296-11.224-81.094-33.362
					c-22.168-27.568-23.633-66.272-18.149-91.041c9.17-41.481,44.771-69.459,73.125-82.009
					c-87.524-371.189-109.497-643.073-109.712-645.809l31.035-2.424c0.215,2.746,22.564,278.924,112.134,654.416l3.447,14.452
					l-14.302,4.092c-21.128,6.047-57.544,28.768-65.332,63.99c-3.218,14.537-4.307,44.559,12.021,64.868
					c11.601,14.423,30.718,21.738,56.826,21.738h201.597c74.399,0,115.508-29.697,125.679-90.787
					c7.979-47.945,0.659-161.28-6.421-270.882c-6.846-105.978-13.315-206.08-6.807-253.24l30.84,4.248
					c-6.079,44.046,0.586,147.216,7.031,246.991c7.192,111.357,14.629,226.507,6.06,277.983
					C1934.842,3610.654,1880.765,3651.036,1791.175,3651.036z"/>
			</g>
			<g>
				<path style="fill:#262F6A;" d="M1774.8,3465.773c-59.089-7.708-120.434-11.564-178.981,0.868
					c-2.456,0.633-8.036,1.951-10.093,2.804c0,0-7.903-30.071-7.903-30.071c2.98-0.566,4.912-0.742,7.235-1.006
					C1649.347,3433.304,1713.591,3447.658,1774.8,3465.773L1774.8,3465.773z"/>
			</g>
			<g>
				<path style="fill:#262F6A;" d="M1594.008,3497.171c-32.761,33.025-24.479,114.994,26.463,123.219
					c0.001-0.001-7.376,30.203-7.376,30.203C1550.337,3630.322,1545.143,3533.948,1594.008,3497.171L1594.008,3497.171z"/>
			</g>
			<g>
				<path style="fill:#262F6A;" d="M1700.77,3497.171c-32.762,33.024-24.478,114.994,26.462,123.219
					c0.001-0.001-7.375,30.203-7.375,30.203C1657.099,3630.322,1651.905,3533.948,1700.77,3497.171L1700.77,3497.171z"/>
			</g>
		</g>
		<g>
			<path style="fill:#EEEEEE;" d="M2359.378,3536.707c-0.286,20.99-3.108,41.491-11.244,55.457
				c-15.292,26.177-34.755,42.389-96.823,42.389h-166.416c-94.288,0-102.711-55.947-104.879-81.838
				c-0.45-5.472-0.654-11.026-0.654-16.457c17.01,16.702,45.509,29.484,93.634,29.484h189.844
				C2316.731,3565.742,2342.491,3555.043,2359.378,3536.707z"/>
		</g>
		<g>
			<path style="fill:#262F6A;" d="M2368.712,2831.911c-1.285,201.992,2.705,424.175-0.001,626.232
				c4.339,36.187,14.062,95.28-4.585,136.991c-12.846,26.711-36.249,45.029-64.655,50.473c-29.297,7.247-94.858,3.631-125.189,4.5
				c0-0.001-81.362-0.001-81.362-0.001c-42.353,1.808-99.103-9.466-118.881-56.002c-6.804-14.885-9.09-30.74-9.835-45.013
				c-1.481-29.317,1.913-56.783,8.515-85.368c0,0-0.407,5.448-0.407,5.448l-33.478-326.917
				c-1.526-20.289,28.253-23.663,30.967-3.163c0,0,33.478,326.917,33.478,326.917c0.193,1.884,0.043,3.704-0.409,5.45
				c-2.867,11.886-5.045,25.135-6.434,37.802c-2.872,33.53-5.094,75.705,26.45,95.616c20.037,12.655,46.125,14.466,70.034,14.14
				c0,0,81.362,0,81.362,0l81.149-0.072c25.598-0.363,51.528-3.586,66.166-17.517c17.548-16.044,21.963-39.136,22.201-62.979
				c0.635-26.41-2.988-52.539-6.141-79.083c0.584-52.555,0.96-105.296,0.873-158.022c-0.206-77.887-0.646-235.104-1.061-313.009
				c-0.154-52.205-0.322-104.381,0.116-156.739C2338.099,2811.612,2368.254,2810.835,2368.712,2831.911L2368.712,2831.911z"/>
		</g>
		<g>
			<path style="fill:#262F6A;" d="M2288.409,3470.823c-84.197-23.883-169.481-10.753-253.566,6.807
				C2104.619,3428.529,2218.697,3415.377,2288.409,3470.823L2288.409,3470.823z"/>
		</g>
		<g>
			<path style="fill:#262F6A;" d="M2088.431,3497.171c-18.028,41.79-12.116,104.721,34.561,124.015c0,0-15.864,26.749-15.864,26.749
				c-24.295-16.595-40.227-45.995-40.385-74.947C2066.544,3546.128,2072.968,3518.977,2088.431,3497.171L2088.431,3497.171z"/>
		</g>
		<g>
			<path style="fill:#262F6A;" d="M2224.639,3497.171c30.369,31.515,44.169,123.42,1.141,150.195
				c-0.001,0-13.874-27.831-13.874-27.831c2.433-0.577,5.682-2.51,8.605-6.016
				C2241.639,3584.66,2243.142,3528.224,2224.639,3497.171L2224.639,3497.171z"/>
		</g>
		<g>
			<path style="fill:#FFFFFF;" d="M2315.341,3024.322l-317.089,140.562c-139.674,20.541-461.302,19.03-531.916-256.785
				c-2.29-8.698-4.253-17.642-5.97-26.871c-8.75-47.004-10.713-101.276-4.048-163.839c12.961-121.859,95.76-316.162,185.02-454.682
				c0,0,141.228-208.719,249.091-216.764c113.956-8.494,195.323,43.001,249.868,100.786
				c63.336,67.055,90.527,142.604,90.527,142.604c5.479,40.184,14.965,82.328,26.332,124.513
				c31.157,115.692,76.42,231.629,91.222,307.954C2371.562,2841.249,2351.241,2954.572,2315.341,3024.322z"/>
		</g>
		<g>
			<path style="fill:#EEEEEE;" d="M2315.341,3024.322l-154.573,78.018l-162.516,62.544
				c-139.674,20.541-461.302,19.03-531.916-256.785c81.981,87.596,267.042,152.936,504.848,95.151
				c252.649-61.378,259.641-214.11,185.674-587.485c-12.594-63.543,36.636-46.351,100.299-1.919
				c31.157,115.692,76.42,231.629,91.222,307.954C2371.562,2841.249,2351.241,2954.572,2315.341,3024.322z"/>
		</g>
		<g>
			<path style="fill:#F8D2B6;" d="M2188.955,2816.216c-23.306,230.363-317.743,300.48-572.477,218.52
				c-43.219-13.926-106.923-54.314-140.901-117.285c86.152,82.777,266.346,141.501,495.607,85.799
				C2102.108,2971.438,2167.08,2915.082,2188.955,2816.216z"/>
		</g>
		<g>
			<path style="fill:#EEEEEE;" d="M2203.552,2232.774c-84.557,36.876-185.96,58.479-313.654,52.884
				c-95.76-4.166-171.649-26.708-227.257-52.435c-2.819-7.656,10.232-21.014,23.04-33.968
				c56.384-57.027,135.837-148.156,204.749-153.311c113.956-8.494,195.323,43.001,249.868,100.786
				C2168.061,2176.132,2188.914,2207.209,2203.552,2232.774z"/>
		</g>
		<g>
			<path style="fill:#CDCDCD;" d="M1734.092,2260.164c44.125,13.174,96.109,22.89,155.798,25.493
				c14.202,0.622,28.093,0.894,41.634,0.894c-23.892-14.457-48.599-25.027-73.735-31.051
				C1812.147,2244.542,1771.018,2247.262,1734.092,2260.164z"/>
		</g>
		<g>
			<path style="fill:#E7E7E7;" d="M1616.478,3034.715c-51.031-16.426-130.559-69.719-156.112-153.487
				c-8.75-47.004-17.627-102.402-4.048-163.839c38.646-174.853,152.946-521.601,401.487-461.869
				c167.82,40.332,317.608,283.13,332.048,510.997C2206.292,3036.247,1888.726,3122.345,1616.478,3034.715z"/>
		</g>
		<g>
			<path style="fill:#CDCDCD;" d="M1734.092,2260.164c44.125,13.174,96.109,22.89,155.798,25.493
				c14.202,0.622,28.093,0.894,41.634,0.894c-23.892-14.457-48.599-25.027-73.735-31.051
				C1812.147,2244.542,1771.018,2247.262,1734.092,2260.164z"/>
		</g>
		<g>
			<path style="fill:#CDCDCD;" d="M2188.955,2816.216c-23.306,230.363-317.743,300.48-572.477,218.52
				c-43.219-13.926-106.923-54.314-140.901-117.285c86.152,82.777,266.346,141.501,495.607,85.799
				C2102.108,2971.438,2167.08,2915.082,2188.955,2816.216z"/>
		</g>
		<g>
			<path style="fill:#262F6A;" d="M1998.273,3164.884c-109.041,31.667-229.558,26.075-335.98-14.256
				c-215.453-83.242-256.23-309.13-208.434-512.73c36.48-135.675,97.699-266.636,187.491-375.177
				c-57.969,125.695-117.979,250.134-154.149,383.67c-32.279,126.78-30.641,279.3,58.477,382.694
				C1657.693,3154.534,1839.992,3162.405,1998.273,3164.884L1998.273,3164.884z"/>
		</g>
		<g>
			<path style="fill:#262F6A;" d="M2230.825,2289.316c33.334,128.979,88.513,255.07,124.154,383.202
				c26.666,101.405,24.558,212.589-16.908,309.668c-6.524,14.665-14.047,28.846-22.744,42.148
				c10.927-29.601,18.532-60.016,23.051-91.047c11.337-76.034,7.323-154.67-11.808-229.073
				C2289.877,2567.734,2235.212,2432.305,2230.825,2289.316L2230.825,2289.316z"/>
		</g>
		<g>
			<g>
				<path style="fill:#FFFFFF;" d="M2587.207,2948.773c-14.474,120.144-80.386,173.232-213.273,161.226
					c-39.334,7.596-130.515,11.679-168.828-35.447c-30.544-37.611-29.971-107.974,14.597-137.458c0,0-64.44-4.288-58.593-65.707
					c2.29-23.971,18.563-41.205,37.126-52.966c16.233-10.373,34.264-16.539,46.204-19.357
					c3.23-53.007-24.737-260.011-95.147-398.857l-12.675-283.819c160.609,64.686,420.945,373.824,451.816,697.704
					C2592.727,2858.89,2592.604,2904.016,2587.207,2948.773z"/>
			</g>
			<g>
				<path style="fill:#EEEEEE;" d="M2264.844,2201.941c-36.963,21.154-77.279,39.449-122.011,53.579l-6.215-139.133
					C2175.135,2131.906,2219.376,2161.472,2264.844,2201.941z"/>
			</g>
			<g>
				<path style="fill:#EEEEEE;" d="M2573.101,3010.356c-28.009,76.488-91.672,109.362-199.167,99.643
					c-39.334,7.596-130.515,11.679-168.828-35.447c-30.544-37.611-29.971-107.974,14.597-137.458c0,0-64.44-4.288-58.593-65.707
					c0.286-3.022,0.777-5.881,1.472-8.698c7.564,15.845,21.262,35.038,45.059,43.573c32.384,11.557,67.139,5.431,72.25,42.185
					c3.394,24.502-23.511,43.573-21.058,74.528c2.658,32.915,49.679,48.678,111.502,34.221
					C2370.336,3057.196,2514.058,3082.883,2573.101,3010.356z"/>
			</g>
			<g>
				<path style="fill:#262F6A;" d="M2142.439,2101.97c101.339,44.167,182.941,130.958,250.71,215.701
					c133.114,173.375,229.015,390.403,211.56,612.798c-9.758,144.573-88.264,208.847-232.177,195.016
					c0.001,0.001,4.349-0.217,4.349-0.217c-14.758,2.763-29.207,4.156-43.824,4.705c-44.913,1.011-93.409-3.946-129.324-34.557
					c-48.455-43.711-48.505-133.664,7.381-171.3c0.001,0,7.565,28.472,7.565,28.472c-22.368-2.393-43.636-10.963-58.59-28.887
					c-21.772-27.139-18.954-68.908,2.739-94.88c19.984-23.981,48.738-37.372,78.03-44.895c0,0-11.939,14.178-11.939,14.178
					c-0.209-15.725-1.812-32.917-3.204-48.998c-10.663-118.686-30.729-238.073-76.403-348.899
					c17.541,29.785,32.339,61.284,44.947,93.492c31.106,81.087,54.171,165.839,64.556,252.249
					c1.725,17.621,2.882,34.874,1.177,54.047c-0.287,7.043-5.362,12.76-11.941,14.18c-27.71,7.025-62.626,23.652-70.284,52.154
					c-7.253,30.365,10.845,50.83,40.795,54.97c16.313,0.072,23.076,19.364,9.74,28.74c-18.389,11.941-28.528,35.097-28.756,59.002
					c-0.38,58.538,39.894,82.996,93.061,88.482c27.347,3.483,55.785,0.693,82.73-3.001c127.052,11.92,189.599-39.008,198.358-166.72
					c23.231-276.82-155.572-596.508-375.146-758.836c-21.529-15.114-44.195-28.56-67.749-38.161L2142.439,2101.97L2142.439,2101.97z
					"/>
			</g>
			<g>
				<path style="fill:#262F6A;" d="M2214.924,2922.285c19.235-3.196,39.959,6.527,42.857,27.026
					c1.507,12.278-2.191,24.589-6.512,35.889c-0.706-10.556-1.814-22.171-7.336-31.299c-2.824-3.969-6.761-6.3-10.304-5.659
					c-2.573,0.24-7.546,1.665-9.137,3.627C2224.492,2951.87,2214.924,2922.285,2214.924,2922.285L2214.924,2922.285z"/>
			</g>
			<g>
				<path style="fill:#262F6A;" d="M2217.239,2791.794c28.302,0.33,55.497,6.276,82.755,12.36
					c-25.968,4.301-52.718,8.74-77.109,18.214C2222.885,2822.369,2217.239,2791.794,2217.239,2791.794L2217.239,2791.794z"/>
			</g>
		</g>
		<g>
			<g>
				<path style="fill:#EEEEEE;" d="M1336.168,2665.865l-269.99,77.201c-25.211,7.209-51.501-7.359-58.719-32.539l-138.555-483.352
					c-7.218-25.18,7.369-51.436,32.58-58.645l269.99-77.201c25.212-7.209,51.501,7.36,58.719,32.539l138.555,483.352
					C1375.966,2632.4,1361.379,2658.656,1336.168,2665.865z"/>
			</g>
			<g>
				<path style="fill:#BBBBBB;" d="M1336.151,2665.855l-269.964,77.215c-25.209,7.2-51.498-7.372-58.706-32.55l-138.565-483.337
					c-5.093-17.849,0.734-36.258,13.511-47.941c0.043,0.259,0.086,0.517,0.173,0.776l138.565,483.337
					c7.208,25.178,33.497,39.75,58.707,32.55l270.008-77.215c7.381-2.112,13.813-5.82,19.08-10.692
					C1375.649,2632.917,1361.102,2658.741,1336.151,2665.855z"/>
			</g>
			<g>
				<path style="fill:#262F6A;" d="M1053.016,2759.499c-10.4,0.002-20.684-2.636-30.024-7.813
					c-14.502-8.034-24.995-21.229-29.56-37.148l-138.555-483.351c-9.419-32.867,9.688-67.26,42.593-76.667l269.985-77.201
					c15.943-4.557,32.7-2.646,47.207,5.391c14.497,8.034,24.995,21.226,29.561,37.146l138.555,483.353
					c9.419,32.864-9.688,67.257-42.593,76.667l-269.99,77.201C1064.525,2758.697,1058.753,2759.499,1053.016,2759.499z
					 M1184.593,2104.056c-3.042,0-6.099,0.424-9.102,1.285l-269.99,77.201c-17.437,4.984-27.559,23.208-22.568,40.623
					l138.555,483.351c2.417,8.437,7.978,15.427,15.659,19.685c7.676,4.252,16.557,5.264,25.015,2.855l269.985-77.201
					c17.441-4.987,27.563-23.211,22.573-40.623l-138.555-483.353c-2.417-8.434-7.979-15.425-15.664-19.683
					C1195.55,2105.453,1190.101,2104.056,1184.593,2104.056z M1336.165,2665.866h0.049H1336.165z"/>
			</g>
			<g>
				<path style="fill:#262F6A;" d="M1285.43,2582.906l-146.94,41.992l-73.254,20.953c-1.338,0.388-2.676,0.604-3.971,0.733
					c-10.145,0.949-19.814-5.389-22.706-15.521l-19.468-67.859l-46.102-160.854l-47.139-164.562
					c-3.281-11.425,3.324-23.367,14.806-26.644l122.205-34.921l97.989-28.023c7.727-2.199,15.67,0.086,21.022,5.346
					c2.59,2.5,4.576,5.691,5.655,9.442l27.583,96.271l28.792,100.366l56.333,196.637
					C1303.517,2567.687,1296.913,2579.63,1285.43,2582.906z"/>
			</g>
			<g style="opacity:0.4;">
				<path style="fill:#FFFFFF;" d="M1181.874,2153.546l-162.781,409.658l-46.102-160.854l89.872-226.126l97.989-28.023
					C1168.578,2146.001,1176.521,2148.286,1181.874,2153.546z"/>
			</g>
			<g style="opacity:0.4;">
				<path style="fill:#FFFFFF;" d="M1243.904,2359.625l-105.413,265.273l-73.254,20.953c-1.338,0.388-2.676,0.604-3.971,0.733
					l153.846-387.325L1243.904,2359.625z"/>
			</g>
			<g>
				<ellipse style="fill:#262F6A;" cx="1188.067" cy="2658.752" rx="17.268" ry="17.246"/>
			</g>
		</g>
		<g>
			
				<path style="fill:none;stroke:#6B184E;stroke-width:31.1091;stroke-linecap:round;stroke-linejoin:round;stroke-miterlimit:10;" d="
				M1424.198,1312.851"/>
		</g>
		<g>
			<g>
				<g>
					<path style="fill:#FFFFFF;" d="M898.957,2337.106c29.769,68.759,103.564,39.806,138.024,171.28
						c14.937,56.99,34.304,85.599,19.769,119.293c-39.914,79.906-183.414,80.72-225.115-80.371
						C809.752,2462.757,818.508,2370.232,898.957,2337.106z"/>
				</g>
				<g>
					<path style="fill:#FFFFFF;" d="M992.097,2653.547c-22.314,6.8-46.719,3.762-68.722-8.55
						c-22.587-12.646-52.917-40.868-69.137-103.526c-8.128-31.405-27.626-130.611,35.635-173.236
						c14.3,19.83,32.408,31.008,48.855,41.162c29.557,18.248,57.474,35.48,75.668,104.896c4.355,16.615,9.013,30.75,13.126,43.225
						c10.107,30.658,14.369,45.064,8.031,60.352C1026.782,2635.017,1011.375,2647.672,992.097,2653.547z"/>
				</g>
				<g>
					<path style="fill:#EEEEEE;" d="M1027.531,2557.496c10.106,30.684,14.341,45.077,8.029,60.369
						c-8.797,17.146-24.175,29.795-43.453,35.67c-22.33,6.805-46.734,3.759-68.721-8.555c-4.951-2.757-10.253-6.261-15.726-10.728
						c20.808,10.317,47.234,12.226,72.247,3.11c23.529-8.576,44.586-19.55,9.398-134.728c-25.562-83.67-79.71-80.031-99.417-134.42
						c14.286,19.862,32.388,31.045,48.831,41.189c29.577,18.25,57.495,35.461,75.693,104.88
						C1018.759,2530.915,1023.406,2545.06,1027.531,2557.496z"/>
				</g>
			</g>
			<g>
				<g>
					<path style="fill:#262F6A;" d="M968.441,2695.936c-4.39,0-8.823-0.232-13.296-0.702
						c-65.2-6.854-117.007-60.698-138.579-144.034c-28.848-111.467-0.264-196.873,76.46-228.464
						c7.847-3.228,16.846,0.419,20.22,8.203c10.064,23.252,25.898,33.028,45.942,45.4c31.504,19.451,70.718,43.656,92.852,128.114
						c4.048,15.447,8.506,28.975,12.441,40.911c10.825,32.835,19.37,58.769,6.567,88.466c-0.117,0.266-0.239,0.532-0.371,0.79
						C1051.605,2672.798,1012.386,2695.936,968.441,2695.936z M892.142,2357.667c-75.425,42.764-54.194,151.922-45.439,185.752
						c18.189,70.259,59.946,115.456,111.704,120.896c36.011,3.799,69.004-13.155,84.219-43.181
						c7.554-17.912,2.803-34.154-7.715-66.05c-4.072-12.365-8.691-26.378-12.988-42.761c-18.979-72.422-49.546-91.29-79.102-109.538
						C924.637,2391.558,905.936,2380.017,892.142,2357.667z"/>
				</g>
			</g>
			<g>
				<path style="fill:#262F6A;" d="M890.823,2525.903c36.244,2.936,135.026-17.472,109.292-69.599
					c-0.001,0,29.196-10.781,29.196-10.781C1051.302,2523.997,945.769,2539.745,890.823,2525.903L890.823,2525.903z"/>
			</g>
			<g>
				<path style="fill:#262F6A;" d="M914.142,2608.1c28.701,3.712,59.007-0.437,84.507-13.368
					c21.837-10.723,41.585-32.44,30.544-56.214c0,0,29.827-8.895,29.827-8.895C1074.443,2608.092,970.164,2628.107,914.142,2608.1
					L914.142,2608.1z"/>
			</g>
		</g>
		<g>
			<g>
				<path style="fill:#262F6A;" d="M977.375,2133.795c-29.769-68.257-43.224-143.386-40.641-217.692
					c1.306-37.582,6.843-74.848,16.605-111.17c4.351-16.188,9.53-32.162,15.146-47.954c4.688-13.183,10.627-28.458,15.533-40.009
					c22.084-52.005,49.773-101.383,73.569-152.592c31.906-68.662,57.642-140.309,75.236-213.972
					c15.188-63.591,24.478-128.684,27.911-193.968c0.312-5.929,0.571-11.861,0.79-17.794c0.691-18.759-28.493-18.73-29.183,0
					c-2.263,61.441-9.685,122.022-22.667,182.071c-16.083,74.397-40.289,147.229-71.625,216.603
					c-23.64,52.336-51.79,102.514-74.951,155.068c-28.36,64.35-48.886,131.367-54.318,201.757
					c-5.896,76.402,4.927,154.69,31.966,226.434c3.548,9.414,7.409,18.707,11.431,27.928c3.148,7.217,13.735,8.867,19.964,5.228
					C979.6,2149.376,980.535,2141.04,977.375,2133.795L977.375,2133.795z"/>
			</g>
		</g>
		<g>
			<g>
				<path style="fill:#262F6A;" d="M945.218,2681.524c5.037,16.571,10.523,33.484,12.375,50.777
					c1.823,17.026-0.814,33.695-2.179,50.632c-1.423,17.656,0.032,34.905,7.409,51.187c6.507,14.362,16.938,27.613,28.828,37.938
					c23.567,20.467,54.405,30.114,84.983,21.065c28.507-8.436,52.586-30.07,64.343-57.261c14.841-34.327,12.21-73.947-2.045-108.032
					c-3.035-7.257-9.661-12.453-17.949-10.178c-6.857,1.882-13.248,10.618-10.191,17.927c10.446,24.976,14.883,52.814,7.04,79.169
					c-6.487,21.8-22.912,40.566-43.819,48.556c-21.798,8.33-44.374,3.553-62.47-12.5c-9.652-8.563-18.695-19.292-23.521-31.393
					c-5.225-13.099-4.331-27.306-3.014-41.049c1.635-17.063,3.41-33.573,1.209-50.688c-2.37-18.432-7.465-36.159-12.858-53.897
					C967.917,2655.877,939.74,2663.506,945.218,2681.524L945.218,2681.524z"/>
			</g>
		</g>
		<g>
			<path style="fill:#262F6A;" d="M3169.498,1063.803l-17.272,80.064c5.693-1.479,12.25-1.677,18.983-0.276
				c17.722,3.686,29.931,17.024,27.268,29.792c-2.662,12.767-19.187,20.129-36.909,16.443
				c-17.722-3.686-29.931-17.025-27.269-29.792c0.015-0.073,0.037-0.144,0.053-0.217l16.237-75.102l-80.044-37.802l-16.454,76.14
				c5.481-1.276,11.706-1.388,18.09-0.06c17.722,3.686,29.931,17.025,27.269,29.792c-2.662,12.767-19.187,20.129-36.909,16.443
				c-17.722-3.686-29.931-17.024-27.268-29.792l26.392-123.799c2.052-9.842,13.006-14.942,21.873-10.185l78.343,42.032
				C3167.759,1050.638,3170.859,1057.279,3169.498,1063.803z"/>
		</g>
		<g>
			<path style="fill:#262F6A;" d="M3394.749,1533.283c-0.867,4.401-7.313,4.079-7.751-0.385
				c-2.843-28.971-18.565-56.987-43.825-71.048c-26.588-14.808-58.785-12.892-88.583-6.772c-8.032,1.644-12.632,10.161-9.743,17.828
				l58.752,155.958c9.618,25.532-11.325,57.023-46.756,70.337c-35.455,13.323-71.988,3.431-81.607-22.101
				s11.325-57.023,46.78-70.346c12.77-4.799,25.663-6.586,37.402-5.695l-71.769-190.512c-4.712-12.508,3.19-20.387,14.971-17.969
				c9.78,4.712,20.439,8.253,30.731,11.343c26.214,7.851,53.929,9.246,80.599,15.326c26.68,6.105,53.754,18.177,68.591,41.159
				C3393.728,1477.731,3399.472,1509.323,3394.749,1533.283z"/>
		</g>
		<g>
			<path style="fill:#262F6A;" d="M2983.01,1672.909c0.927,2.904-3.017,4.822-4.742,2.307
				c-11.194-16.322-29.746-27.862-49.399-27.971c-20.689-0.12-39.234,11.555-54.972,24.948c-4.244,3.606-4.19,10.183,0.045,13.804
				l86.136,73.651c14.102,12.058,11.958,37.662-4.774,57.181c-16.744,19.533-41.743,25.594-55.845,13.537
				s-11.958-37.662,4.786-57.195c6.031-7.035,13.122-12.318,20.405-15.628l-105.22-89.97c-6.908-5.907-4.787-13.184,3.022-15.598
				c7.37-0.393,14.878-1.772,22.021-3.299c18.185-3.901,35.147-12.137,53.023-17.241c17.89-5.093,37.972-6.762,54.344,2.07
				C2964.183,1640.161,2977.965,1657.095,2983.01,1672.909z"/>
		</g>
		<g>
			<g>
				<path style="fill:#262F6A;" d="M1304.862,1712.455c-87.808-57.969-184.579-96.326-286.148-121.221
					c-14.608-3.89-29.464-6.73-44.424-11.429c13.351-1.95,26.976-3.033,40.466-3.826c79.811-0.974,160.09,23.606,224.858,70.424
					C1264.708,1664.75,1288.105,1686.174,1304.862,1712.455L1304.862,1712.455z"/>
			</g>
			<g>
				<path style="fill:#262F6A;" d="M1296.541,1828.149c-102.512-24.46-210.011-36.009-310.455,2.825
					C1071.07,1760.75,1207.02,1771.763,1296.541,1828.149L1296.541,1828.149z"/>
			</g>
			<g>
				<path style="fill:#FFAC40;" d="M2036.454,955.641l357.638,297.596l154.56,128.599c98.72-224.156,121.749-503.704,79.165-622.132
					c-8.764-24.365-20.289-41.868-34.508-50.742C2500.607,651.201,2193.331,807.893,2036.454,955.641z"/>
			</g>
			<g>
				<path style="fill:#FF9243;" d="M2394.091,1253.237l154.56,128.599c98.72-224.156,121.749-503.704,79.165-622.132
					c-31.615-33.981-80.349-56.482-116.342,62.489C2474.13,945.4,2423.014,1140.702,2394.091,1253.237z"/>
			</g>
			<g style="opacity:0.5;">
				<path style="fill:#FFFFFF;" d="M2036.454,955.641L2059,974.384c163.032-139.508,465.41-272.287,530.799-242.871
					c53.159,23.914,58.125,204.928,44.549,350.802c28.169-181.055,12.881-339.781-41.039-373.352
					C2500.607,651.201,2193.331,807.893,2036.454,955.641z"/>
			</g>
			<g>
				<path style="fill:#262F6A;" d="M2548.621,1397.405c-2.095,0-4.229-0.427-6.27-1.324c-7.881-3.463-11.46-12.653-7.993-20.526
					c122.085-277.175,120.684-609.816,50.693-653.402c-82.979-51.679-382.91,98.866-537.91,244.809
					c-6.269,5.903-16.133,5.608-22.046-0.649c-5.908-6.257-5.615-16.115,0.649-22.013
					c78.018-73.456,195.493-151.305,306.587-203.169c73.027-34.093,205.107-85.338,269.223-45.409
					c97.656,60.818,77.07,429.653-38.652,692.377C2560.335,1393.931,2554.617,1397.405,2548.621,1397.405z"/>
			</g>
			<g>
				<path style="fill:#FFFFFF;" d="M1992.766,815.168c-99.493-5.032-284.982-13.901-450.747,89.219
					c-237.883,131.377-305.229,495.292-320.828,679.744c-16.52,31.383-67.336,156.125-20.345,288.609
					c51,141.345,241.749,333.332,736.732,350.654c437.308,5.995,712.466-150.026,740.5-474.246
					c21.99-222.62-47.703-436.812-110.4-554.663c0,0-216.874-268.471-322.072-313.494
					C2166.055,846.945,1992.766,815.168,1992.766,815.168z"/>
			</g>
			<g>
				<path style="fill:#FFFFFF;" d="M2678.075,1749.164c-28.019,324.192-303.178,480.237-740.506,474.214
					c-494.963-17.321-685.724-209.293-736.716-350.625c-5.475-15.466-9.643-30.813-12.615-45.934
					c-15.722-78.162-1.379-149.864,13.942-196.282c7.092-21.53,14.395-37.608,19.002-46.399
					c15.608-184.458,82.954-548.382,320.841-679.75c165.754-103.127,351.264-94.259,450.741-89.207
					c0,0,173.304,31.752,252.854,65.815c105.193,45.008,322.048,313.495,322.048,313.495
					C2630.374,1312.335,2700.079,1526.526,2678.075,1749.164z"/>
			</g>
			<g>
				<path style="fill:#FFFFFF;" d="M2678.075,1749.164c-28.019,324.192-303.178,480.237-740.506,474.214
					c-494.963-17.321-685.724-209.293-736.716-350.625c-5.475-15.466-9.643-30.813-12.615-45.934
					c-15.722-78.162-1.379-149.864,13.942-196.282c7.092-21.53,14.395-37.608,19.002-46.399
					c15.608-184.458,82.954-548.382,320.841-679.75c165.754-103.127,351.264-94.259,450.741-89.207
					c0,0,173.304,31.752,252.854,65.815c105.193,45.008,322.048,313.495,322.048,313.495
					C2630.374,1312.335,2700.079,1526.526,2678.075,1749.164z"/>
			</g>
			<g>
				<path style="fill:#EEEEEE;" d="M2586.202,1998.651c-118.693,154.68-344.424,228.921-648.628,224.727
					c-330.308-11.559-525.138-100.904-633.378-201.05c133.534,78.777,331.626,139.723,618.361,149.757
					C2211.313,2176.086,2438.691,2118.709,2586.202,1998.651z"/>
			</g>
			<g>
				<path style="fill:#FFAC40;" d="M2601.835,1267.469c-86.826,59.629-237.306,125.531-411.627,40.458
					c-211.536-103.22-206.034-340.91-172.548-487.947c50.828,10.124,166.973,34.898,227.958,61.025
					c105.189,44.983,322.031,313.481,322.031,313.481C2579.006,1215.825,2590.601,1240.34,2601.835,1267.469z"/>
			</g>
			<g>
				<path style="fill:#FFAC40;" d="M2245.617,881.006l-243.719,42.973c2.834-38.228,8.911-74.41,16.263-106.221
					C2090.006,827.497,2162.884,843.029,2245.617,881.006z"/>
			</g>
			<g>
				<path style="fill:#262F6A;" d="M2521.859,1739.164c84.087-70.761,212.302-90.108,317.922-68.201
					c13.197,3.326,26.515,6.851,39.44,11.031c-7.856,0.151-15.613,0.005-23.329-0.185c-7.438-0.069-15.584-0.883-23.046-0.507
					C2726.533,1679.846,2619.953,1696.481,2521.859,1739.164L2521.859,1739.164z"/>
			</g>
			<g>
				<path style="fill:#262F6A;" d="M2510.927,1879.859c101.76-35.452,238.206-15.957,307.116,72.597
					C2727.345,1891.188,2618.053,1878.367,2510.927,1879.859L2510.927,1879.859z"/>
			</g>
			<g>
				<path style="fill:#262F6A;" d="M2145.249,1219.177c0,0-81.506-115.299-133.722-93.161
					c-52.216,22.138-44.108,80.111-12.48,96.918C2044.988,1247.347,2145.249,1219.177,2145.249,1219.177z"/>
			</g>
			<g>
				<path style="fill:#262F6A;" d="M1391.808,1246.743c0,0,51.275-112.998,99.978-102.566
					c48.704,10.432,51.283,61.792,26.773,81.541C1482.958,1254.405,1391.808,1246.743,1391.808,1246.743z"/>
			</g>
			<g>
				<path style="fill:#262F6A;" d="M1607.853,1709.499c-1.693,24.426,23.972,47.896,43.95,62.329
					c13.833,9.993,32.158,11.27,47.236,3.29c21.777-11.524,50.434-31.211,52.127-55.636
					C1753.916,1679.808,1610.603,1669.825,1607.853,1709.499z"/>
			</g>
			<g style="opacity:0.35;">
				<path style="fill:#FFFFFF;" d="M1642.438,1703.275c-0.313,4.518,9.459,9.21,17.017,12.149
					c5.233,2.035,12.013,2.507,17.476,1.217c7.891-1.863,18.216-5.155,18.529-9.673
					C1695.969,1699.629,1642.947,1695.935,1642.438,1703.275z"/>
			</g>
			<g>
				<path style="fill:#F17E80;" d="M2323.595,942.271c54.642,40.319,118.995,92.004,210.813,217.408
					c4.149-6.948,8.057-14.703,11.635-23.077c25.332-58.4,37.952-147.68,35.872-221.724c-1.264-46.087-8.158-86.266-21.234-109.474
					C2530.415,751.581,2330.661,912.273,2323.595,942.271z"/>
			</g>
			<g>
				<path style="fill:#FF5C64;" d="M2323.595,942.271c54.642,40.319,118.995,92.004,210.813,217.408
					c4.149-6.948,8.057-14.703,11.635-23.077c-9.404-52.703-54.529-108.048-73.22-152.03
					c-38.787-91.245,29.088-152.819,56.215-144.608c16.077,4.873,42.15,53.534,52.878,74.914
					c-1.264-46.087-8.158-86.266-21.234-109.474C2530.415,751.581,2330.661,912.273,2323.595,942.271z"/>
			</g>
			<g>
				<path style="fill:#262F6A;" d="M2534.398,1175.254c-4.961,0-9.644-2.36-12.588-6.381
					c-89.639-122.452-151.635-172.894-207.461-214.064c-5.015-3.699-7.344-10.027-5.918-16.091
					c7.954-33.81,152.661-149.528,220.21-159.074c28.54-4.023,40.854,9.631,45.635,18.139l0,0
					c41.318,73.463,26.475,280.857-26.475,369.853c-2.671,4.496-7.432,7.352-12.661,7.6
					C2534.891,1175.249,2534.642,1175.254,2534.398,1175.254z M2344.095,938.099c51.65,38.816,109.311,88.237,187.832,192.135
					c40.664-92.736,45.503-263.218,15.161-317.196l0,0c-0.488-0.871-1.987-3.541-10.903-2.894
					C2486.214,813.726,2371.322,904.849,2344.095,938.099z"/>
			</g>
			<g>
				
					<ellipse transform="matrix(0.0353 -0.9994 0.9994 0.0353 480.3311 4080.8401)" style="fill:#FF989D;" cx="2354" cy="1791.613" rx="98.841" ry="120.35"/>
			</g>
			<g>
				<path style="fill:#FF989D;" d="M1316.881,1733.246c-1.9,54.561-53.277,97.014-114.765,94.862
					c-4.696-0.164-9.347-0.583-13.879-1.289c-15.722-78.162-1.379-149.864,13.942-196.282c2.263-0.067,4.522-0.061,6.816,0.019
					C1270.483,1632.708,1318.781,1678.685,1316.881,1733.246z"/>
			</g>
			<g>
				<path style="fill:#262F6A;" d="M2097.959,2217.665c190.731-42.005,402.552-95.205,506.673-276.366
					c34.87-60.924,54.192-130.704,57.355-200.795c7.98-99.491-1.366-199.85-21.758-297.486
					c-18.357-84.732-43.592-165.981-72.552-248.534c69.042,95.857,103.217,212.474,121.578,328.004
					c24.37,173.547,12.075,370.762-107.969,508.865C2463.022,2166.617,2271.939,2224.059,2097.959,2217.665L2097.959,2217.665z"/>
			</g>
			<g>
				<path style="fill:#262F6A;" d="M1992.371,822.945c-96.668,2.012-192.49,4.156-286.037,28.795
					c-42.408,11.256-84.572,27.619-123.43,48.033c-32.885,18.545-66.196,37.575-94.747,62
					c-169.046,147.047-227.646,409.188-248.771,623.893c0.002,0.001-0.316,3.677-0.316,3.677l-1.714,3.277
					c-56.544,116.337-52.248,262.696,31.005,365.548c63.774,82.934,158.286,138.75,254.54,176.954
					c17.548,7.291,45.104,16.252,62.923,22.873c26.877,7.159,53.672,16.863,80.9,22.75c21.638,5.061,43.853,11.156,65.788,15.091
					c43.729,9.148,89.616,16.358,133.662,23.72c-33.989-0.983-68.287-1.067-102.182-4.698c-11.966-1.369-39.633-3.887-51.034-5.236
					c-22.219-3.038-45.397-7.535-67.622-11.134c-22.061-4.361-44.954-10.416-66.94-15.56c-9.928-3.233-39.002-11.772-49.44-15.112
					c-4.22-1.158-12.27-3.994-16.286-5.69c-15.725-6.209-32.803-12.469-48.228-19.073c-11.634-5.181-36.078-16.877-46.943-22.402
					c-7.611-4.264-22.639-12.931-30.222-17.207c-9.968-5.122-34.061-22.018-43.835-28.475
					c-80.285-57.911-150.321-140.189-171.25-239.16c-9.169-40.317-10.904-82.88-6.253-123.863
					c5.71-47.322,17.689-93.424,39.09-136.3c4.598-118.958,48.845-318.389,116.647-449.352
					c47.512-94.705,117.182-183.738,211.419-235.721c51.085-31.013,107.332-54.598,165.227-69.46
					c44.732-11.125,91.521-18.819,137.523-20.918c52.479-2.885,105.424,0.196,157.363,7.204
					C2002.531,809.208,2002.101,822.243,1992.371,822.945L1992.371,822.945z"/>
			</g>
			<g>
				<path style="fill:#FFFFFF;" d="M2245.605,880.99c-184.501-84.715-320.009-57.792-504.616-103.959
					c-46.07-11.521-128.661-49.979-128.661-49.979s-6.824,85.657,12.234,132.919c-103.348,9.809-133.779,59.424-276.41,79.436
					c31.147,37.683,92.798,85.38,170.954,69.722L2245.605,880.99z"/>
			</g>
			<g>
				<path style="fill:#FFAC40;" d="M2245.617,881.006l-243.719,42.973c2.834-38.228,8.911-74.41,16.263-106.221
					C2090.006,827.497,2162.884,843.029,2245.617,881.006z"/>
			</g>
			<g>
				<path style="fill:#262F6A;" d="M2245.605,880.99c-104.229-36.111-210.082-48.401-319.428-56.91
					c-81.742-7.879-167.822-16.564-244.873-48.457c-25.82-10.473-50.774-21.88-75.565-34.454l22.134-12.88
					c-1.973,31.827-1.791,65.137,3.408,96.643c1.747,10.323,4.246,20.349,7.746,29.223c3.863,9.376-2.739,20.277-12.801,21.305
					c-47.327,6.069-87.898,24.656-132.031,43.579c-45.331,19.084-94.682,31.948-143.664,37.28c0,0,10.806-27.781,10.806-27.781
					c38.016,48.061,95.5,79.693,157.769,80.592c-65.617,29.806-140.785-7.305-184.137-58.851
					c-8.986-9.777-2.297-26.587,10.807-27.781c46.441-7.661,90.726-19.889,134.189-38.16c20.567-8.251,47.317-20.032,68.423-26.397
					c24.073-7.743,49.576-12.357,74.699-13.473l-12.99,21.322c-16.389-45.239-15.56-92.74-13.315-139.96
					c0.295-10.852,12.572-17.828,22.136-12.892c43.217,17.213,86.388,36.396,131.483,47.582
					C1914.361,800.839,2097.526,787.662,2245.605,880.99L2245.605,880.99z"/>
			</g>
			<g>
				<g>
					<path style="fill:#FFFFFF;" d="M1624.563,859.973c36.059-0.072,80.067,13.446,108.473,9.973"/>
				</g>
				<g>
					<path style="fill:#262F6A;" d="M1624.531,844.399c38.746,4.771,70.391,22.797,108.504,25.547
						c-34.768,7.885-74.263-0.046-108.442,5.601C1624.594,875.547,1624.531,844.399,1624.531,844.399L1624.531,844.399z"/>
				</g>
			</g>
			<g>
				<path style="fill:#262F6A;" d="M1659.123,1773.769c2.133,20.664,19.664,52.84,21.951,52.773
					c1.528-0.045,3.387-31.325,10.05-52.632"/>
			</g>
			<g>
				<g>
					<path style="fill:#262F6A;" d="M1881.355,1914.103c52.396,54.393,154.536,40.066,175.923-34.568
						c1.598-5.185,7.151-8.075,12.323-6.407c4.718,1.518,7.482,6.286,6.611,11.028c-7.105,43.419-46.772,76.816-89.971,80.675
						C1945.647,1969.865,1899.466,1951.498,1881.355,1914.103L1881.355,1914.103z"/>
				</g>
				<g>
					<path style="fill:#262F6A;" d="M2032.269,1874.219c24.467-20.333,63.901,7.307,52.74,37.219
						c-8.266-7.467-15.172-15.831-24.079-21.686C2051.999,1883.402,2043.205,1879.732,2032.269,1874.219L2032.269,1874.219z"/>
				</g>
			</g>
			<g>
				<path style="fill:#262F6A;" d="M2174.934,1541.315c-125.64-38.818-224.822,21.263-288.566,128.591
					c0-0.001-28.993-30.939-28.993-30.939c93.625-40.674,195.963-35.666,277.501,28.527c-90.794-32.402-172.456-30.165-259.299,12.5
					c-11.1,5.262-24.371,0.541-29.641-10.546c-3.227-6.782-2.674-14.223,0.647-20.394c14.607-30.05,34.941-56.466,58.846-79.342
					C1978.892,1497.735,2090.303,1476.921,2174.934,1541.315L2174.934,1541.315z"/>
			</g>
			<g>
				<path style="fill:#262F6A;" d="M1313.169,1528.178c93.9-80.744,208.36-1.472,247.031,96.649
					c6.432,15.517-11.04,30.668-25.454,22.443c-64.63-37.196-124.476-37.39-192.064-8.244
					c59.335-55.539,137.911-60.324,208.828-24.036c0-0.001-25.028,23.5-25.028,23.5
					C1483.385,1552.937,1413.777,1489.221,1313.169,1528.178L1313.169,1528.178z"/>
			</g>
		</g>
		<g>
			<g>
				<path style="fill:#C5C5C5;" d="M2627.99,1054.054c16.556,76.309-3.69,243.192-3.69,243.192s-75.859,17.166-112.72,19.494
					c-102.714,6.463-187.736-66.172-215.39-193.628c-27.654-127.456,19.87-227.654,116.392-262.658
					c34.642-12.554,111.068-27.107,111.068-27.107S2611.434,977.745,2627.99,1054.054z"/>
			</g>
			<g>
				<path style="fill:#C5C5C5;" d="M2627.99,1054.063c14.852,68.453,0.09,209.864-3.117,238.193
					c-0.357,3.229-0.569,4.994-0.569,4.994s-75.86,17.159-112.736,19.48c-87.739,5.514-162.581-46.661-199.775-141.471
					c-6.352-16.174-11.58-33.569-15.609-52.138c-27.653-127.453,19.877-227.66,116.389-262.661
					c34.653-12.566,111.082-27.103,111.082-27.103S2611.431,977.744,2627.99,1054.063z"/>
			</g>
			<g>
				<path style="fill:#C5C5C5;" d="M2627.99,1054.063c14.852,68.453,0.09,209.864-3.117,238.193
					c-0.357,3.229-0.569,4.994-0.569,4.994s-75.86,17.159-112.736,19.48c-87.739,5.514-162.581-46.661-199.775-141.471
					c-6.352-16.174-11.58-33.569-15.609-52.138c-18.517-85.345-3.314-158.459,37.736-207.954
					c20.243-24.449,46.761-43.13,78.653-54.707c32.354-11.737,101.088-25.182,110.095-26.93c0.639-0.101,0.987-0.173,0.987-0.173
					S2611.431,977.744,2627.99,1054.063z"/>
			</g>
			<g>
				<path style="fill:#9F9F9F;" d="M2522.67,833.532c-9.079,63.873-27.443,149.532-58.445,117.839
					c-31.341-32.037-90.486-37-130.303-36.202c20.243-24.449,46.761-43.13,78.653-54.707
					C2444.929,848.724,2513.663,835.279,2522.67,833.532z"/>
			</g>
			<g>
				<path style="fill:#9F9F9F;" d="M2624.873,1292.256c-0.357,3.229-0.569,4.994-0.569,4.994s-75.86,17.159-112.736,19.48
					c-87.739,5.514-162.581-46.661-199.775-141.471c26.213,15.864,78.741,34.505,104.903-36.844
					c31.158-84.88,158.098,72.004,158.098,72.004L2624.873,1292.256z"/>
			</g>
			<g>
				<path style="fill:#262F6A;" d="M2499.09,1330.794c-104.878,0-188.965-78.944-216.265-204.79
					c-28.472-131.232,20.63-240.505,125.088-278.387c35.269-12.782,110.01-27.083,113.174-27.685
					c5.615-1.075,11.289,1.451,14.253,6.328c3.633,5.976,89.165,147.247,106.016,224.904l0,0
					c16.851,77.664-2.642,240.82-3.481,247.727c-0.693,5.728-4.917,10.402-10.552,11.677c-3.14,0.712-77.358,17.434-114.878,19.802
					C2507.962,1330.653,2503.499,1330.794,2499.09,1330.794z M2516.834,848.611c-21.284,4.274-73.413,15.196-99.59,24.683
					c-92.212,33.44-133.477,128.058-107.69,246.925c25.815,118.992,102.9,189.044,201.167,182.889
					c27.803-1.756,79.775-12.506,101.084-17.103c3.921-36.297,16.465-166.167,2.822-229.059
					C2600.955,993.935,2535.365,879.988,2516.834,848.611z"/>
			</g>
			<g>
				
					<ellipse transform="matrix(0.9752 -0.2212 0.2212 0.9752 -171.8927 595.8027)" style="fill:#FFC629;" cx="2573.974" cy="1065.305" rx="172.278" ry="237.355"/>
			</g>
			<g>
				<path style="fill:#FFC629;" d="M2742.649,1030.199c27.792,128.093-25.188,247.663-118.345,267.052
					c-74.627,15.532-152.395-37.946-194.676-125.738c-10.502-21.747-18.793-45.643-24.317-71.103
					c-27.792-128.093,25.188-247.663,118.345-267.052c75.291-15.67,153.753,38.874,195.761,127.997
					C2729.395,982.511,2737.317,1005.623,2742.649,1030.199z"/>
			</g>
			<g>
				<path style="fill:#2CB3FF;" d="M2742.649,1030.199c27.792,128.093-25.188,247.663-118.345,267.052
					c-74.627,15.532-152.395-37.946-194.676-125.738c-10.502-21.747-18.793-45.643-24.317-71.103
					c-16.869-77.752-3.98-152.393,29.611-203.362c10.736-16.32,23.643-30.256,38.365-41c14.985-11.054,31.902-18.845,50.369-22.689
					c75.291-15.67,153.753,38.874,195.761,127.997C2729.395,982.511,2737.317,1005.623,2742.649,1030.199z"/>
			</g>
			<g>
				<path style="fill:#128BF8;" d="M2742.649,1030.199c27.792,128.093-25.188,247.663-118.345,267.052
					c-74.627,15.532-152.395-37.946-194.676-125.738c16.931,2.786,35.595,2.439,45.203-9.026
					c27.191-32.333-12.096-85.151,5.123-136.027c2.048-6.099-7.622-51.123-45.032-129.413c10.736-16.32,23.643-30.256,38.365-41
					c74.757,28.482,194.046,85.364,246.13,105.308C2729.395,982.511,2737.317,1005.623,2742.649,1030.199z"/>
			</g>
			<g>
				<path style="fill:#262F6A;" d="M2598.583,1313.555c-91.079,0-180.088-87.825-206.651-210.252
					c-16.836-77.584-5.283-157.12,30.894-212.757c24.678-37.951,58.574-62.349,98.037-70.564
					c100.313-20.882,205.815,72.127,235.151,207.324c16.836,77.584,5.283,157.12-30.894,212.759
					c-24.678,37.948-58.574,62.346-98.032,70.561C2617.611,1312.599,2608.084,1313.555,2598.583,1313.555z M2549.783,844.329
					c-7.793,0-15.586,0.783-23.345,2.397c-32.158,6.693-60.059,26.99-80.674,58.696c-32.295,49.664-42.427,121.474-27.104,192.096
					c26.167,120.592,117.095,204.203,202.852,186.364c32.158-6.693,60.054-26.99,80.669-58.696
					c32.295-49.662,42.427-121.474,27.104-192.096C2705.487,923.413,2628.065,844.329,2549.783,844.329z"/>
			</g>
			<g>
				<path style="fill:none;" d="M2579.151,952.068"/>
			</g>
			<g>
				<path style="fill:#FFF2F2;" d="M2781.824,1022.045c14.852,68.453-60.448,179.687-60.448,179.687s-45.327,23.747-65.262,27.896
					c-69.715,14.51-143.091-51.442-163.89-147.308c-20.799-95.866,18.854-185.343,88.569-199.853
					c9.664-2.011,71.199-0.533,71.199-0.533S2763.908,939.468,2781.824,1022.045z"/>
			</g>
			<g>
				<path style="fill:#FFF2F2;" d="M2781.829,1022.045c11.306,52.109-29.62,128.984-49.828,162.732
					c-6.322,10.621-10.629,16.967-10.629,16.967s-45.316,23.74-65.269,27.893c-66.469,13.834-136.255-45.511-160.613-134.165
					c-1.199-4.308-2.285-8.703-3.25-13.154c-20.799-95.864,18.846-185.347,88.539-199.852c9.676-2.014,71.203-0.543,71.203-0.543
					S2763.914,939.475,2781.829,1022.045z"/>
			</g>
			<g>
				<path style="fill:#D2D2D2;" d="M2732,1184.777c-6.322,10.621-10.629,16.967-10.629,16.967s-45.316,23.74-65.269,27.893
					c-66.469,13.834-136.255-45.511-160.613-134.165c4.158,4.998,32.24,36.025,52.147-11.905
					c23.02-55.366,150.364,27.979,150.364,27.979L2732,1184.777z"/>
			</g>
			<g>
				<path style="fill:#262F6A;" d="M2636.912,1245.259c-69.766,0.005-137.827-66.821-158.052-160.047
					c-12.788-58.938-3.969-119.431,23.594-161.819c18.979-29.185,45.103-47.96,75.552-54.297
					c10.396-2.165,59.517-1.168,74.312-0.817c2.065,0.051,4.097,0.566,5.933,1.512c4.805,2.468,117.866,61.503,136.938,149.362l0,0
					c15.908,73.314-59.277,185.491-62.485,190.228c-1.265,1.87-2.974,3.397-4.976,4.445c-4.814,2.521-47.632,24.762-68.823,29.173
					C2651.595,1244.52,2644.241,1245.256,2636.912,1245.259z M2610.912,895.072c-13.672,0-24.429,0.232-27.364,0.775
					c-23.115,4.808-43.237,19.482-58.154,42.422c-23.677,36.414-31.079,89.183-19.805,141.159
					c19.185,88.41,85.42,149.81,147.74,136.826c13.677-2.846,44.414-17.742,58.574-25.003
					c11.201-17.337,68.76-110.072,56.558-166.316l0,0c-14.858-68.471-103.496-120.272-120.073-129.423
					C2635.784,895.235,2622.333,895.072,2610.912,895.072z M2721.375,1201.729h0.054H2721.375z"/>
			</g>
			<g>
				
					<ellipse transform="matrix(0.9752 -0.2212 0.2212 0.9752 -165.5714 615.0851)" style="fill:#2CB3FF;" cx="2663.231" cy="1046.728" rx="121.125" ry="166.88"/>
			</g>
			<g>
				<path style="fill:#128BF8;" d="M2781.829,1022.045c19.542,90.071-17.713,174.117-83.233,187.754
					c-65.488,13.63-134.418-48.315-153.96-138.386c-1.303-6.007-2.365-11.968-3.154-17.891
					c24.148,80.38,88.297,133.538,149.421,120.816c61.156-12.729,97.691-86.841,86.381-169.894
					C2779.021,1010.169,2780.525,1016.038,2781.829,1022.045z"/>
			</g>
			<g style="opacity:0.6;">
				<path style="fill:#FFFFFF;" d="M2781.829,1022.045c1.012,4.665,1.885,9.295,2.561,13.935c-2.368-3.299-3.967-6.249-4.51-8.749
					c-15.447-71.197-64.75-123.11-116.483-127.576c0,0,0,0-0.032,0.007c-0.405,0.116-8.273-0.799-10.134,7.527
					c-4.767,21.321,15.646,70.122,15.646,70.122l-24.808,8.872c0,0-16.854-57.477-35.228-60.131
					c-12.378-1.788-23.087,11.338-23.087,11.338c-23.849,32.657-33.46,82.651-22.134,134.852
					c17.822,82.143,80.676,138.629,140.409,126.197c7.779-1.619,18.177-3.05,30.037-4.594
					c-10.542,7.771-22.443,13.243-35.471,15.955c-65.488,13.63-134.418-48.315-153.96-138.386
					c-19.542-90.071,17.713-174.117,83.201-187.747C2693.357,870.028,2762.287,931.974,2781.829,1022.045z"/>
			</g>
			<g>
				<path style="fill:#262F6A;" d="M2680.584,1225.318c-65.933,0-130.225-63.049-149.312-151.015
					c-12.241-56.411-4.116-112.052,22.285-152.653c17.949-27.609,42.676-45.373,71.504-51.374
					c72.69-15.145,149.033,51.649,170.127,148.876c12.241,56.411,4.116,112.05-22.285,152.653
					c-17.949,27.61-42.676,45.373-71.504,51.374C2694.476,1224.621,2687.523,1225.318,2680.584,1225.318z M2646.297,895.411
					c-5.229,0-10.454,0.527-15.659,1.609c-21.528,4.479-40.249,18.141-54.146,39.509c-22.124,34.027-29.038,83.37-18.491,131.991
					c17.93,82.616,79.756,140.032,137.822,127.916c21.528-4.479,40.249-18.141,54.146-39.509
					c22.124-34.03,29.038-83.372,18.491-131.991C2752.142,949.72,2699.427,895.411,2646.297,895.411z"/>
			</g>
			<g>
				
					<ellipse transform="matrix(0.9752 -0.2212 0.2212 0.9752 -164.675 617.8138)" style="fill:#28E0F8;" cx="2675.88" cy="1044.095" rx="58.331" ry="80.365"/>
			</g>
			<g style="opacity:0.4;">
				<path style="fill:#FFFFFF;" d="M2730.381,1086.068c0.783-16.798-0.293-33.337-3.019-45.899
					c-8.375-38.602-37.905-65.184-65.985-59.34c-28.08,5.844-44.053,41.897-35.678,80.499c2.461,11.343,7.491,25.083,14.11,38.683
					c-9.743-11.548-17.296-26.707-21.053-44.026c-9.414-43.389,8.54-83.87,40.067-90.431c31.559-6.568,64.768,23.264,74.181,66.653
					C2737.232,1051.69,2735.942,1070.57,2730.381,1086.068z"/>
			</g>
			<g>
				<path style="fill:#16BAD5;" d="M2718.807,1041.145c6.692,30.843-6.075,59.661-28.524,64.333
					c-22.427,4.668-46.055-16.575-52.747-47.418c-0.414-1.909-0.76-3.831-1.031-5.725c10.657,15.419,26.332,24.058,41.448,20.912
					c21.054-4.382,33.576-29.998,29.523-58.647C2712.642,1022.049,2716.623,1031.081,2718.807,1041.145z"/>
			</g>
			<g>
				<path style="fill:#262F6A;" d="M2684.315,1136.94c-34.946,0-68.799-32.555-78.686-78.115
					c-6.275-28.941-2.017-57.623,11.684-78.698c9.663-14.859,23.076-24.44,38.784-27.71c38.736-8.064,79.082,26.468,90.034,76.947
					l0,0c6.274,28.941,2.017,57.626-11.685,78.698c-9.663,14.859-23.076,24.44-38.784,27.71
					C2691.888,1136.557,2688.094,1136.94,2684.315,1136.94z M2667.581,978.091c-2.012,0-4.014,0.2-5.996,0.612
					c-10.791,2.246-17.769,9.968-21.723,16.049c-9.683,14.891-12.656,36.717-7.954,58.387c7.7,35.515,34.35,61.351,58.267,56.348
					c10.791-2.246,17.768-9.968,21.723-16.049c9.683-14.889,12.656-36.717,7.954-58.386
					C2712.791,1002.489,2689.769,978.091,2667.581,978.091z"/>
			</g>
			<g>
				<path style="fill:#F3F3F3;" d="M1706.586,400.894c161.908-53.647,649.335-141.51,839.012,506.468l5.084,50.582
					c0,0-33.596,6.992-54.75,11.395c-98.568-277.473-322.982-653.76-773.156-519.606"/>
			</g>
			<g>
				<path style="fill:#262F6A;" d="M2495.921,982.999c-5.684,0-10.913-3.555-12.881-9.093
					c-88.354-248.72-304.102-645.875-756.353-511.082c-7.231,2.153-14.853-1.958-17.017-9.183
					c-2.158-7.23,1.958-14.837,9.194-16.995c467.056-139.181,691.841,258.537,785.918,516.9l31.064-6.466l-3.73-37.092
					c-67.93-231.286-180.713-389.574-335.249-470.518c-196.977-103.174-405.483-52.283-485.977-25.61
					c-7.188,2.375-14.907-1.507-17.285-8.663c-2.378-7.159,1.504-14.889,8.672-17.266c83.813-27.766,301.021-80.695,507.295,27.349
					c161.626,84.657,279.097,248.929,349.151,488.252c0.239,0.807,0.4,1.634,0.483,2.47l5.083,50.581
					c0.698,6.952-3.97,13.309-10.82,14.735l-54.751,11.394C2497.781,982.906,2496.849,982.999,2495.921,982.999z"/>
			</g>
			<g>
				<path style="fill:#FFC629;" d="M2651.981,881.922l-0.088,0.05c-8.008-0.5-16.056,0.027-24.056,1.693
					c-35.574,7.404-62.835,35.609-77.156,74.25c-1.127-3.367-88.059-260.549-253.912-421.763
					c-136.496-132.684-329.78-202.975-577.221-139.906C1929.776,313.66,2467.906,272.707,2651.981,881.922z"/>
			</g>
			<g>
				<path style="fill:#FFC629;" d="M2651.981,881.922l-0.088,0.05c-8.008-0.5-16.056,0.027-24.056,1.693
					c-35.574,7.404-62.835,35.609-77.156,74.25c-0.209-0.657-3.777-11.164-10.592-28.867
					c-27.843-72.122-110.136-263.443-243.32-392.897c-136.496-132.684-329.783-202.973-577.224-139.905
					c190.154-74.696,648.592-115.33,870.625,328.429C2613.618,771.517,2634.404,823.756,2651.981,881.922z"/>
			</g>
			<g>
				<path style="fill:#2CB3FF;" d="M2651.981,881.922l-0.088,0.05c-8.008-0.5-16.056,0.027-24.056,1.693
					c-35.574,7.404-62.835,35.609-77.156,74.25c-0.209-0.657-3.777-11.164-10.592-28.867
					c-23.229-60.144-84.296-203.142-181.157-324.061c-19.313-24.12-40.042-47.308-62.163-68.835
					c-37.113-36.094-78.442-67.551-123.916-92.981c-121.717-68.072-273.167-92.829-453.308-46.923
					c121.632-47.783,353.005-81.63,562.083,16.349c71.323,33.372,140.069,82.13,200.926,150.887
					c39.696,44.798,76.047,98.1,107.616,161.193C2613.618,771.517,2634.404,823.756,2651.981,881.922z"/>
			</g>
			<g style="opacity:0.6;">
				<path style="fill:#FFFFFF;" d="M2482.553,563.482c-54.802,5-99.751,27.231-123.622,41.504
					c-19.313-24.12-40.042-47.308-62.163-68.835c-37.113-36.094-78.442-67.551-123.916-92.981
					c30.584-13.345,69.12-23.245,108.775-30.575C2352.95,445.967,2421.697,494.725,2482.553,563.482z"/>
			</g>
			<g style="opacity:0.6;">
				<path style="fill:#FFFFFF;" d="M2651.981,881.922l-0.088,0.05c-8.008-0.5-16.056,0.027-24.056,1.693
					c-35.574,7.404-62.835,35.609-77.156,74.25c-0.209-0.657-3.777-11.164-10.592-28.867c7.013-21.6,18.624-44.094,37.818-61.346
					c30.122-27.047,37.165-54.454,12.263-143.027C2613.618,771.517,2634.404,823.756,2651.981,881.922z"/>
			</g>
			<g>
				<path style="fill:#262F6A;" d="M2550.682,971.573c-0.073,0-0.142,0-0.215,0c-5.801-0.093-10.913-3.828-12.754-9.324
					c-0.859-2.563-87.725-258.103-250.483-416.311c-104.219-101.304-286.719-207.199-564.297-136.46
					c-7.012,1.799-14.175-2.173-16.396-9.037c-2.222-6.864,1.289-14.267,8.008-16.908c137.192-53.89,371.484-80.944,580.288,20.177
					c176.401,85.428,300.967,244.994,370.239,474.266c1.831,6.047-0.737,12.56-6.201,15.742l-0.088,0.051
					c-2.344,1.365-5,1.987-7.744,1.836c-6.895-0.432-13.779,0.049-20.415,1.431c-29.473,6.133-53.936,30.05-67.114,65.619
					C2561.517,968.023,2556.395,971.573,2550.682,971.573z M1973.47,363.712c150.737,18.819,259.966,91.819,332.832,162.651
					c133.726,129.982,217.422,323.117,246.167,397.001c17.754-28.129,43.13-46.941,72.578-53.071
					c2.827-0.588,5.688-1.058,8.565-1.404c-67.896-212.554-185.83-360.748-350.708-440.597
					C2179.237,378.086,2070.223,362.112,1973.47,363.712z"/>
			</g>
		</g>
	</g>
</g>
</svg>
