<?xml version="1.0" encoding="UTF-8"?>
<svg width="374.52" height="374.52" viewBox="0 0 374.51514 326.85681" xmlns="http://www.w3.org/2000/svg" xmlns:xlink="http://www.w3.org/1999/xlink">
 <defs>
  <linearGradient id="c">
   <stop stop-color="#dedede" offset="0"/>
   <stop stop-color="#dedede" stop-opacity="0" offset="1"/>
  </linearGradient>
  <linearGradient id="d">
   <stop stop-color="#b1c9f7" offset="0"/>
   <stop stop-color="#5d7ec1" offset="1"/>
  </linearGradient>
  <linearGradient id="i" x1="336.41" x2="333.56" y1="579.57" y2="537.78" gradientTransform="matrix(.81938 .00861 -.00725 .69015 411.46 1081.6)" gradientUnits="userSpaceOnUse">
   <stop stop-color="#c9c9c9" offset="0"/>
   <stop stop-color="#c9c9c9" stop-opacity="0" offset="1"/>
  </linearGradient>
  <linearGradient id="b" x1="600.69" x2="598.41" y1="1404.2" y2="1367.3" gradientUnits="userSpaceOnUse" xlink:href="#c"/>
  <linearGradient id="h" x1="118.93" x2="116.79" y1="195.67" y2="161.03" gradientTransform="matrix(-1.0305 -.07947 -.07947 1.0305 913.6 1212.8)" gradientUnits="userSpaceOnUse" xlink:href="#c"/>
  <radialGradient id="g" cx="-841.95" cy="-44.146" r="167.06" gradientTransform="matrix(.79398 -.67732 .68183 .79926 1372.4 928.05)" gradientUnits="userSpaceOnUse">
   <stop stop-color="#afa288" offset="0"/>
   <stop stop-color="#dad3c2" offset="1"/>
  </radialGradient>
  <radialGradient id="f" cx="522.67" cy="369.91" r="195.34" gradientTransform="matrix(1.2263 -.8606 .64722 .92224 -196.48 1546.3)" gradientUnits="userSpaceOnUse">
   <stop stop-color="#4b2d0c" offset="0"/>
   <stop stop-color="#403a33" offset=".5547"/>
   <stop stop-color="#3d270f" offset="1"/>
  </radialGradient>
  <radialGradient id="a" cx="261.89" cy="484.01" r="24.36" gradientTransform="matrix(1.166 .16524 -.18916 1.3348 391.57 704.75)" gradientUnits="userSpaceOnUse" xlink:href="#d"/>
  <radialGradient id="e" cx="261.89" cy="484.01" r="24.36" gradientTransform="matrix(-1.142 .07297 .08354 1.3073 1030.4 742.98)" gradientUnits="userSpaceOnUse" xlink:href="#d"/>
 </defs>
 <g transform="matrix(.83058 0 0 .83058 -387 -981.12)">
  <path d="m687.89 1261.2c-133.87 1.5662-177.39 73.431-178.36 170.45 11.346 30.323 13.392 54.641 32.114 77.158 17.554 21.112 51.323 40.987 75.807 52.665 0.60245 0.2874-0.29927-0.9349 0.30797-0.6536l-0.53183 0.7978c100.78 31.686 205.53-36.252 209.94-43.544 43.457-35.034 82.587-198.7-115.67-256.48-8.1519-0.3687-16.034-0.4873-23.6-0.3989z" fill="url(#g)"/>
  <path d="m536.51 1181.2c-1.4104 64.871-44.447 202.25-27.423 249.66 0.17211-0.6311 0.32914-1.2658 0.4986-1.8946 24.118-89.501 69.358-143.11 122.59-162.78-16.853-45.15-38.928-85.261-95.664-84.994zm92.986 84.325c25.312 50.7 28.82 108.52 41.835 162.85 3.1186 12.742 6.3457 24.586 10.072 35.7 22.341-62.426 35.942-132.78 98.124-174.11-49.482-32.405-104.08-41.41-150.03-24.436zm150.03 24.436c2.9972 1.9628 5.9974 4.0102 8.9747 6.1493 34.932 28.455 60.76 66.231 70.768 122.09 0.17778 1.1568 2.0559 9.476 2.7341 18.245 15.23-75.301 35.145-118.2 39.813-198.07-59.816-6.1851-98.286 27.784-118.4 49.062-1.3283 0.8297-2.6029 1.6714-3.8891 2.5263zm-98.124 174.11c-18.974 35.172-33.922 82.914-64.86 97.26 43.056 19.373 93.622 17.955 138.96-5.7136-2.9698-1.2887-6.4174-3.0602-7.5526-3.7942-37.234-24.076-54.567-52.023-66.546-87.753zm-172.32-33.207c-0.11474 0.4207-0.22097 0.8424-0.3324 1.2631l0.43212-0.9307c-0.0394-0.1069-0.061-0.2245-0.0997-0.3324z" fill="url(#f)"/>
  <path d="m682.11 1495.2c-0.82498 40.247 5.5408 70.935 34.012 72.241" fill="none" stroke="#414141" stroke-width="1.4255"/>
  <path d="m681.19 1495.2c0.82498 40.247-5.5408 70.935-34.012 72.241" fill="none" stroke="#414141" stroke-width="1.4255"/>
  <path d="m663.59 1461.9c6.5613-10.81 30.865-10.008 37.006 1.0533 6.4738 11.661-18.737 35.406-18.737 35.406s-25.31-24.859-18.268-36.459z" fill="#414141"/>
  <path d="m593.8 1344.6c-5.0162-42.809-15.651-76.587-43.557-82.6" fill="none" stroke="#535353" stroke-width="1.7856"/>
  <path d="m594.7 1344.8c-6.6224-43.077-4.8624-74.789 22.667-71.561" fill="none" stroke="#535353" stroke-width="1.7856"/>
  <path d="m589.73 1346.2c-23.468-35.58-36.973-68.233-19.848-91.889" fill="none" stroke="#535353" stroke-width="1.7856"/>
  <path d="m589.15 1346.9c-22.433-36.883-43.928-59.483-62.543-38.178" fill="none" stroke="#535353" stroke-width="1.7856"/>
  <path d="m765.67 1346.4c5.2027-42.785 15.984-76.513 43.917-82.395" fill="none" stroke="#535353" stroke-width="1.7856"/>
  <path d="m764.77 1346.5c6.8101-43.045 5.1884-74.765-22.354-71.667" fill="none" stroke="#535353" stroke-width="1.7856"/>
  <path d="m769.74 1348c23.623-35.469 37.27-68.059 20.248-91.795" fill="none" stroke="#535353" stroke-width="1.7856"/>
  <path d="m770.31 1348.7c22.593-36.777 44.187-59.276 62.709-37.884" fill="none" stroke="#535353" stroke-width="1.7856"/>
  <path d="m646.93 1507.9c-69.244-38.101-133.12-61.76-180.5-41.02" fill="none" stroke="#535353" stroke-width="2.3809"/>
  <path d="m647.39 1508c-78.904-21.969-145.45-33.021-173.99-10.513" fill="none" stroke="#535353" stroke-width="2.3809"/>
  <path d="m647.34 1509.2c-91.401-9.1486-159.47-9.0033-155.81 19.712" fill="none" stroke="#535353" stroke-width="2.3809"/>
  <path d="m735.86 1506.1c69.244-38.101 133.12-61.76 180.5-41.02" fill="none" stroke="#535353" stroke-width="2.3809"/>
  <path d="m735.41 1506.2c78.904-21.969 145.45-33.021 173.99-10.513" fill="none" stroke="#535353" stroke-width="2.3809"/>
  <path d="m735.45 1507.4c91.401-9.1485 159.47-9.0033 155.81 19.712" fill="none" stroke="#535353" stroke-width="2.3809"/>
  <path d="m656.77 1402.5s-27.386 24.528-56.229 20.1-48.221-36.137-48.221-36.137 27.386-24.528 56.229-20.1 48.221 36.137 48.221 36.137z"/>
  <path d="m631.01 1398c-2.0929 14.698-15.264 24.85-29.419 22.677s-23.932-15.85-21.84-30.547 15.264-24.85 29.419-22.677 23.932 15.85 21.84 30.547z" fill="url(#a)"/>
  <path d="m604.58 1420.9s-6.3621-11.979-6.2114-26.667 6.7572-26.524 6.7572-26.524 6.3621 11.979 6.2114 26.667-6.7572 26.524-6.7572 26.524z"/>
  <path d="m601.4 1391.1c1.3429-1.3634 3.5443-1.221 4.828 0.1516 1.4799 1.5826 1.3215 4.1682-0.17948 5.6721-1.7206 1.724-4.5235 1.5354-6.1499-0.225-1.8546-2.0073-1.6477-5.2684 0.25802-7.1565 2.1624-2.1426 5.6667-1.8992 7.6915 0.3152 2.2871 2.5014 2.0229 6.5456-0.35377 8.8776-2.6734 2.6232-6.9864 2.3157-9.469-0.4242-2.7814-3.0696-2.4506-8.0121 0.46825-10.852 3.2582-3.1701 8.4948-2.7881 11.499 0.5534 3.3417 3.7173 2.934 9.681-0.60298 13.097-3.9219 3.7878-10.204 3.3203-13.797-0.7044-3.9719-4.4492-3.4764-11.565 0.75953-15.63 4.6692-4.48 12.127-3.9155 16.38 0.8789 4.6761 5.2705 4.0812 13.677-0.93944 18.466-5.505 5.251-14.275 4.5771-19.265-1.0784-5.4581-6.1862-4.7517-16.029 1.1442-21.624 6.4341-6.105 16.66-5.3086 22.466 1.3046 6.322 7.2011 5.4911 18.634-1.3753 25.119-7.4613 7.0462-19.296 6.1136-26.001-1.5588-7.2718-8.3204-6.3028-21.505 1.6344-28.969 8.5913-8.0784 22.193-6.995 29.885 1.8429 8.3113 9.549 7.1898 24.654-1.9228 33.189-3.4524 3.2336-7.815 5.3474-12.412 6.0514" fill="none" stroke="#000" stroke-width=".71097"/>
  <path d="m600 1368c-14.916 0.6583-29.353 7.5769-41.084 16.354 13.174 14.627 32.884 25.645 53.117 20.742 11.822-2.5088 32.326-3.3741 32.409-15.324 0.11439-16.496-27.017-22.666-44.442-21.772z" fill="url(#b)" opacity=".42152"/>
  <path d="m681.36 1456c-5.2454 0.053-10.341 1.2486-13.687 3.6093 0.82837 3.6588 7.2753 6.5688 15.142 6.6515 7.3998 0.078 13.578-2.3667 15.041-5.6873-3.7645-3.0678-10.224-4.635-16.495-4.5735z" fill="url(#i)" opacity=".74888"/>
  <path d="m656.77 1402.5s-27.386 24.528-56.229 20.1-48.221-36.137-48.221-36.137 27.386-24.528 56.229-20.1 48.221 36.137 48.221 36.137z"/>
  <path d="m631.01 1398c-2.0929 14.698-15.264 24.85-29.419 22.677s-23.932-15.85-21.84-30.547 15.264-24.85 29.419-22.677 23.932 15.85 21.84 30.547z" fill="url(#a)"/>
  <path d="m604.58 1420.9s-6.3621-11.979-6.2114-26.667 6.7572-26.524 6.7572-26.524 6.3621 11.979 6.2114 26.667-6.7572 26.524-6.7572 26.524z"/>
  <path d="m601.4 1391.1c1.3429-1.3634 3.5443-1.221 4.828 0.1516 1.4799 1.5826 1.3215 4.1682-0.17948 5.6721-1.7206 1.724-4.5235 1.5354-6.1499-0.225-1.8546-2.0073-1.6477-5.2684 0.25802-7.1565 2.1624-2.1426 5.6667-1.8992 7.6915 0.3152 2.2871 2.5014 2.0229 6.5456-0.35377 8.8776-2.6734 2.6232-6.9864 2.3157-9.469-0.4242-2.7814-3.0696-2.4506-8.0121 0.46825-10.852 3.2582-3.1701 8.4948-2.7881 11.499 0.5534 3.3417 3.7173 2.934 9.681-0.60298 13.097-3.9219 3.7878-10.204 3.3203-13.797-0.7044-3.9719-4.4492-3.4764-11.565 0.75953-15.63 4.6692-4.48 12.127-3.9155 16.38 0.8789 4.6761 5.2705 4.0812 13.677-0.93944 18.466-5.505 5.251-14.275 4.5771-19.265-1.0784-5.4581-6.1862-4.7517-16.029 1.1442-21.624 6.4341-6.105 16.66-5.3086 22.466 1.3046 6.322 7.2011 5.4911 18.634-1.3753 25.119-7.4613 7.0462-19.296 6.1136-26.001-1.5588-7.2718-8.3204-6.3028-21.505 1.6344-28.969 8.5913-8.0784 22.193-6.995 29.885 1.8429 8.3113 9.549 7.1898 24.654-1.9228 33.189-3.4524 3.2336-7.815 5.3474-12.412 6.0514" fill="none" stroke="#000" stroke-width=".71097"/>
  <path d="m600 1368c-14.916 0.6583-29.353 7.5769-41.084 16.354 13.174 14.627 32.884 25.645 53.117 20.742 11.822-2.5088 38.372-4.9681 32.409-15.324-4.6227-8.0277-29.83-24.71-44.442-21.772z" fill="url(#b)" opacity=".42152"/>
  <path d="m721.29 1399.2s24.7 25.81 52.975 23.674 49.418-31.407 49.418-31.407-24.7-25.81-52.975-23.674-49.418 31.407-49.418 31.407z"/>
  <path d="m746.58 1396.8c0.92959 14.396 12.932 25.216 26.807 24.168s24.37-13.567 23.441-27.963-12.932-25.216-26.807-24.168-24.37 13.567-23.441 27.963z" fill="url(#e)"/>
  <path d="m770.47 1420.9s7.0587-11.13 8.01-25.372-4.5649-26.201-4.5649-26.201-7.0587 11.13-8.0101 25.372 4.5649 26.201 4.5649 26.201z"/>
  <path d="m775.79 1392.2c-1.1992-1.4211-3.3426-1.4475-4.6888-0.2136-1.552 1.4226-1.5917 3.9394-0.24989 5.5087 1.5381 1.7986 4.2677 1.8254 5.975 0.2414 1.9467-1.8062 1.9899-4.981 0.2847-6.9527-1.935-2.2372-5.3482-2.2633-7.4752-0.2692-2.4026 2.2525-2.4489 6.1904-0.3205 8.6272 2.394 2.7411 6.5955 2.7654 9.2054 0.2965 2.9241-2.7662 2.9728-7.5792 0.35713-10.549-2.9198-3.3147-8.0216-3.3358-11.182-0.323-3.5153 3.3518-3.5658 9.1601-0.39431 12.734 3.5166 3.9628 9.6379 3.9791 13.42 0.3483 4.1805-4.0137 4.2321-10.945 0.43185-15.199-4.189-4.6892-11.456-4.6994-15.935-0.3723-4.924 4.7567-4.9758 12.946-0.46947 17.96 4.9411 5.4987 13.488 5.5009 18.745 0.3945 5.7501-5.5854 5.8011-15.174 0.507-21.035-5.7774-6.3954-15.744-6.3879-21.863-0.4145-6.6629 6.5042-6.7121 17.643-0.54422 24.438 6.7022 7.3839 18.238 7.3646 25.307 0.4322 7.6666-7.5177 7.7129-20.364 0.58088-28.188-7.7199-8.4683-20.979-8.4348-29.091-0.4472-8.7656 8.6303-8.8076 23.348-0.61674 32.298 3.1031 3.3907 7.1718 5.7646 11.573 6.7901" fill="none" stroke="#000" stroke-width=".69084"/>
  <path d="m778.86 1370c14.402 1.7523 27.872 9.5338 38.582 18.914-13.856 13.187-33.774 22.388-53.011 16.126-11.266-3.3137-38.55-9.1435-30.253-17.267 13.948-13.658 29.036-19.729 44.683-17.773z" fill="url(#h)" opacity=".42152"/>
 </g>
</svg>
